<svg xmlns="http://www.w3.org/2000/svg" width="459.272" height="94.412" viewBox="0 0 459.272 94.412">
  <g id="Сгруппировать_2" data-name="Сгруппировать 2" transform="translate(-238.438 -664.478)">
    <g id="Редактировать_логотип___Logomaster_-_онлайн_конструктор_логотипов_для_Вашего_бизнеса-0_1_" data-name="Редактировать логотип _ Logomaster - онлайн конструктор логотипов для Вашего бизнеса-0 (1)" transform="translate(228.093 661.057)">
      <path id="Контур_23" data-name="Контур 23" d="M17.8,42c-.5,7.6,1.6,15.6,2.9,23,.8,4.4,1.8,8.7,2.7,13.1.9,3.9,1.4,8,3.4,11.5a1.95,1.95,0,0,0,3.6-1c0-3.4-1.2-6.6-2.1-9.8-1.1-4.3-2.2-8.6-3.2-12.9-1.9-7.8-3-16.5-6.1-24-.3-.6-1.1-.6-1.2.1Z"/>
      <path id="Контур_24" data-name="Контур 24" d="M28.1,88.7c.1,0,.1-.1,0-.1S28.1,88.7,28.1,88.7Zm.2,1.6c3,5.8,12.2,6.4,17.9,7,8.8,1,18,1.1,25.5-4.3a3.245,3.245,0,0,0,1.4-3.4c0-.2-.1-.4-.1-.6a1.458,1.458,0,0,0-2.8,0h-.7c-.2,0-.2.4,0,.4h.6a25.294,25.294,0,0,0,2.2-1.3c-2.5-1.5-4.2,0-6.5,1.2-4.5,2.2-9.1,2.7-14,2.7-4.1,0-8.3-.4-12.4-.7-3.7-.2-7.1-1.7-10.7-1.9a.631.631,0,0,0-.4.9Z"/>
      <path id="Контур_25" data-name="Контур 25" d="M71,88.3c2.8-8.7,6.9-17.2,9.9-25.8,1.5-4.3,3.1-8.7,4.5-13,1.1-3.5,3.8-7.5,1.4-10.8a1.285,1.285,0,0,0-1.5-.6c-3.1,1.1-3.2,3-4.2,6.1-1.5,5-3,10.1-4.4,15.1-1.2,4.4-2.5,8.8-3.7,13.3-1.4,5.1-1.9,10.3-3.5,15.4-.2.8,1.2,1.2,1.5.3Z"/>
      <path id="Контур_26" data-name="Контур 26" d="M85.2,39.2c.1,0,.1-.1,0-.1S85.2,39.2,85.2,39.2Zm-67.4.6c11.2-.3,22.5.2,33.8.6,6,.2,11.9.3,17.9.6,4.3.2,10.7,2.2,14.3-.5a.867.867,0,0,0,.2-1.3c-3-3.1-8.4-2-12.5-2.2-6-.3-11.9-.4-17.9-.4-12-.1-23.9,1.4-35.8,2.7-.4-.1-.4.5,0,.5Z"/>
      <path id="Контур_27" data-name="Контур 27" d="M27.9,39.5c-.6,8.2.3,16.8,1.1,24.9.9,9,1.8,17.9,2.9,26.8.4,3.2,5,2.5,4.3-.6a18.01,18.01,0,0,1-.6-3.2c0-.2-.2-.3-.4-.2a15.459,15.459,0,0,1-2.7,2.4c1.2.5,2.5,1,3.7,1.5-1-9-2.2-17.9-3.4-26.8-1.1-8.3-2-17-4.4-25,0-.3-.5-.2-.5.2Zm14.5-.4c-1.8,17.7-1.8,35.5-1.8,53.3,0,3.5,5.5,3.4,5.3,0-.9-17.8-1.1-35.6-2.5-53.3,0-.6-.9-.6-1,0Zm14.1.3c-.6,9.1-1.1,18.2-1.6,27.3-.3,4.6-.6,9.1-1,13.6s-1.7,9.6-.6,14c.5,2,3.6.9,2.7-1.2a10.875,10.875,0,0,1,0-3.6c0-.3-.3-.3-.4-.1a7.753,7.753,0,0,1-1.9,3.3l2.4,1.8c1.4-3.4,1.2-6.9,1.4-10.5q.45-7.8.6-15.6a260.578,260.578,0,0,0-.7-29.3c-.1-.2-.9-.2-.9.3ZM63,70.8h0C62.9,70.7,62.9,70.8,63,70.8Zm8.1-21.6c.1,0,.1-.1,0,0C71,49.1,71,49.2,71.1,49.2Z"/>
      <path id="Контур_28" data-name="Контур 28" d="M71.3,40.6c-2.4,9.5-5,19-6.9,28.6-1.1,5.1-2.1,10.3-3.2,15.4-.6,3-2.1,6,.2,8.4a.188.188,0,0,0,.3,0c3-1.3,2.7-4.4,3.3-7.4,1-5.1,2-10.3,3-15.4,1.9-9.7,3.1-19.5,4.5-29.2.1-.9-1-1.2-1.2-.4Z"/>
      <path id="Контур_29" data-name="Контур 29" d="M62,92.8c.1,0,.1-.1,0,0C61.9,92.7,61.9,92.8,62,92.8ZM18,36.1c-6-3.6-5.8-11.7.8-14.5,2.8-1.2,3.3-4.1,4.9-6.5,5.4-8.4,19.1-12.4,25.2-2.4a1.812,1.812,0,0,0,2.8.4c6.7-6.6,17.8-3.2,18.8,6.4a2.256,2.256,0,0,0,2.8,2.1c5.4-1.1,5.4,3.7,8.5,6.2,4.2,3.3,4.6,6.3,1.9,11a1.558,1.558,0,0,0,2.1,2.1c5.2-2.3,5.7-10.4,1.8-14.3-1-1-3.3-2.2-3.8-3.4A10.445,10.445,0,0,0,81,19.4c-2.4-2.3-6-2.6-9-1.9.9.7,1.9,1.4,2.8,2.1C73.3,6.7,58.4.9,49.2,10.5a26.956,26.956,0,0,1,2.8.4C44.6-.5,28.9,2.1,21.5,12.2a49.431,49.431,0,0,0-3,4.9c-.4.7-1.9.7-2.6,1.2a10.786,10.786,0,0,0-5.1,6c-1.8,5.3,2,10.8,6.8,12.5.5,0,.7-.5.4-.7Z"/>
      <path id="Контур_30" data-name="Контур 30" d="M84.9,39.8c.1,0,.1-.1,0-.1S84.8,39.8,84.9,39.8Z"/>
      <path id="Контур_31" data-name="Контур 31" d="M84.9,39.8c.1,0,.1-.1,0-.1S84.8,39.8,84.9,39.8Zm-52.1-15,.3-1.5a2.364,2.364,0,0,1,1.9-.8,19.525,19.525,0,0,1,2.3.2,4.258,4.258,0,0,1,3.5,2.1,5.224,5.224,0,0,1,.7,2.1c0,.5-.8,1.3-.9,1.8a2.057,2.057,0,0,0,1,2.5,2.354,2.354,0,0,0,2.3,0c3-1.9,2.6-5.4,1.2-8.2A8.919,8.919,0,0,0,38,18.3c-2.7-.3-6.5.8-7.2,3.7-.3,1.2.3,3.7,1.9,3.3C32.9,25.3,33,24.9,32.8,24.8Z"/>
      <path id="Контур_32" data-name="Контур 32" d="M41.6,30.1c.1,0,.1-.1,0,0ZM61.1,32c-.5-.2-.6-1.5-.6-1.9.2-1,1.2-1,2-.9a2.451,2.451,0,0,0,3-2.2c0-2.4,2.2-1.4,3.5-.8-.3-.7-.6-1.4-.8-2a1.914,1.914,0,0,0,.2,1.8,1.093,1.093,0,0,0,1.3.5c.3-.1.5-.1.8-.2a1.876,1.876,0,0,0,1.3-2.2c-2.2-5.5-10-2.8-10.7,2.2,1-.5,1.9-1.1,2.9-1.6a5.518,5.518,0,0,0-7.1,3.8,4.2,4.2,0,0,0,1.3,3.6c.9,1,2,.5,3.1.2A.355.355,0,0,0,61.1,32Z"/>
      <path id="Контур_33" data-name="Контур 33" d="M69.5,26c.1,0,.1-.1,0,0Z"/>
      <path id="Контур_34" data-name="Контур 34" d="M69.5,26c.1,0,.1-.1,0,0Z"/>
      <path id="Контур_35" data-name="Контур 35" d="M69.5,26c.1,0,.1-.1,0,0Z"/>
    </g>
    <g id="Редактировать_логотип___Logomaster_-_онлайн_конструктор_логотипов_для_Вашего_бизнеса-1_1_" data-name="Редактировать логотип _ Logomaster - онлайн конструктор логотипов для Вашего бизнеса-1 (1)" transform="translate(327.18 718.57)">
      <path id="Контур_36" data-name="Контур 36" d="M26.46-18.19a10.893,10.893,0,0,0-4.52-3.75L34.18-38.42l4.46-.67v-2.82H24.76v2.82l4.74.67L18.11-22.17H13.26V-38.42l4.68-.67v-2.82H2.82v2.82l4.57.67V-3.38l-4.57.56V0H18.28V-2.71l-5.02-.67V-19.46h3.61q1.74,0,3.66,2.65a84.89,84.89,0,0,1,4.8,7.78,71.893,71.893,0,0,0,4.14,6.8C30.55-.74,31.51,0,32.38,0h6.99V-2.76l-2.14-.62A4.7,4.7,0,0,1,35.2-5.22q-1.185-1.605-3.33-5.1Q28.72-15.285,26.46-18.19ZM58.61-41.91H42.65v2.82l4.51.67V-3.33l-4.68.57V0h15.9V-2.76l-5.3-.57V-5.36L69.78-25.5l4.17-6.54V-3.33l-4.96.57V0H84.73V-2.76l-4.8-.57V-38.42l4.52-.67v-2.82H68.93v2.82l5.02.67v1.53L57.71-17.04,53.08-10.1V-38.42l5.53-.67Zm36.1,3.49V-3.33l-4.57.57V0h15.52V-2.76l-4.91-.57V-19.74h19.86V-3.33l-4.63.57V0h15.17V-2.76l-4.45-.57V-38.42l4.45-.67v-2.82H116.04v2.82l4.57.67v15.18H100.75V-38.42l4.85-.67v-2.82H90.26v2.82ZM143.99-2.03A17.115,17.115,0,0,0,153.72.62a18.045,18.045,0,0,0,9.79-2.74,18.952,18.952,0,0,0,6.88-7.72,25.565,25.565,0,0,0,2.51-11.6q0-9.81-4.66-15.37t-13.45-5.55a17.817,17.817,0,0,0-9.65,2.68,18.45,18.45,0,0,0-6.74,7.58,25.244,25.244,0,0,0-2.45,11.4,28.686,28.686,0,0,0,2.03,11.19A16.322,16.322,0,0,0,143.99-2.03Zm1.83-32.63a9.846,9.846,0,0,1,8.63-4.77,9.665,9.665,0,0,1,8.63,4.77q3.045,4.755,3.05,13.28,0,9.195-3.19,14.1a9.8,9.8,0,0,1-8.6,4.91,9.6,9.6,0,0,1-8.6-4.94q-3.075-4.935-3.08-13.39Q142.66-29.895,145.82-34.66Zm45.3-4.26V-3.33l-7.33.57V0h21.54V-2.76l-8.01-.57V-38.92l9.76.34,1.86,11.78h3.56l-.68-15.11H176.68l-.96,15.11h3.72l1.98-11.78Zm29.95.5V-3.33l-4.68.57V0H247.7l1.63-9.82-3.32-1.01-2.99,7.11-15.91.56V-19.97l9.42.17.79,4.85h3.1V-27.92h-3.1l-.79,4.68-9.42.17V-38.98l13.99.34,1.63,5.47h3.22l-.79-8.74H216.45v2.82Zm45.81-3.83L253.28-3.33l-3.49.57V0h13.37V-2.76l-4.86-.57,2.66-8.35h16.47l2.65,8.35-4.68.57V0h14.89V-2.76l-3.5-.57L273.08-42.25Zm3.55,9.02,5.93,18.22H261.97l5.7-18.1,1.35-5.08Zm35.48-5.69V-3.33l-7.33.57V0h21.55V-2.76l-8.01-.57V-38.92l9.76.34,1.86,11.78h3.55l-.67-15.11H291.47l-.96,15.11h3.73l1.97-11.78Zm30.07.5V-3.33l-4.68.57V0h18.45V-2.76l-7.73-.62V-15.79c.26.03.96.08,2.08.14s2.24.08,3.33.08a19.547,19.547,0,0,0,8.49-1.75,13.36,13.36,0,0,0,5.78-5.08,14.35,14.35,0,0,0,2.09-7.84q0-6.03-3.38-9.02t-11.57-3.05c-1.8,0-3.72.08-5.75.23-1.32.11-2.65.17-4.01.17h-7.5v2.82Zm11.45,19.8a35.1,35.1,0,0,1-5.41-.28V-38.92c.26,0,.81-.04,1.63-.12a35.062,35.062,0,0,1,3.84-.22q5.13,0,7.56,2.11c1.62,1.41,2.42,3.74,2.42,6.97q0,6.15-2.79,8.86A9.993,9.993,0,0,1,347.43-18.62Z"/>
    </g>
    <g id="Редактировать_логотип___Logomaster_-_онлайн_конструктор_логотипов_для_Вашего_бизнеса-2_1_" data-name="Редактировать логотип _ Logomaster - онлайн конструктор логотипов для Вашего бизнеса-2 (1)" transform="translate(322.75 753.62)">
      <path id="Контур_37" data-name="Контур 37" d="M19.09,1.92c.21-2.16.32-3.37.32-3.61H16.87V-19.21l2.65-.34v-1.41H3.55v1.41l2.91.34v1.72a41.1,41.1,0,0,1-.65,7.77A28.631,28.631,0,0,1,4.36-4.47,12.489,12.489,0,0,1,2.88-1.69H.82C.76-.79.7.41.63,1.9S.53,4.52.51,5.27H2.34c.15-.73.37-1.77.66-3.13A14.128,14.128,0,0,1,3.55,0H16.44a15.55,15.55,0,0,1,.27,2.2c.12,1.34.2,2.35.24,3.05h1.81Q18.79,5.16,19.09,1.92ZM7.73-10.06a44.958,44.958,0,0,0,.48-7.26v-2h5.7L13.88-1.69H5.27A13.915,13.915,0,0,0,6.53-4.68,35.277,35.277,0,0,0,7.73-10.06Zm22.28-5.65-1.78.06h-3.1v1.38l1.94.39V-1.72l-1.97.34V0h2.87l1.92.06c.34.02.75.03,1.23.05s.99.03,1.54.03q4.14,0,5.98-1.28a4.225,4.225,0,0,0,1.83-3.68,3.3,3.3,0,0,0-1.13-2.51,5.217,5.217,0,0,0-3.21-1.22A4.611,4.611,0,0,0,38.4-9.89a3.33,3.33,0,0,0,.8-2.27,3.035,3.035,0,0,0-1.41-2.72c-.94-.61-2.59-.91-4.96-.91C32.75-15.79,31.81-15.77,30.01-15.71Zm5.37,5.87a3.812,3.812,0,0,1-2.69.81H29.95v-5.21h2.62a5.2,5.2,0,0,1,2.85.57,1.96,1.96,0,0,1,.82,1.71A2.81,2.81,0,0,1,35.38-9.84ZM31.05-1.51a7.966,7.966,0,0,1-1.1-.15v-5.9h3.19a5.068,5.068,0,0,1,3.1.76,2.744,2.744,0,0,1,.99,2.32,2.583,2.583,0,0,1-1.08,2.34,6.977,6.977,0,0,1-3.66.7C32.07-1.44,31.59-1.46,31.05-1.51ZM48.5-8.14a4.126,4.126,0,0,0-2.65,3.91A4.24,4.24,0,0,0,47.19-.86,4.956,4.956,0,0,0,50.56.31a5.469,5.469,0,0,0,2.78-.7,9.5,9.5,0,0,0,2.07-1.56v.93A1.4,1.4,0,0,0,55.7.04a1.694,1.694,0,0,0,1.07.24A8.9,8.9,0,0,0,58.28.14c.57-.09,1.05-.19,1.42-.28V-1.38H58.04v-9.06a8.519,8.519,0,0,0-.51-3.24,3.255,3.255,0,0,0-1.68-1.76,7.519,7.519,0,0,0-3.17-.55,9.008,9.008,0,0,0-2.6.39,14.428,14.428,0,0,0-2.28.91,8.2,8.2,0,0,0-1.36.81l.71,1.47a16.7,16.7,0,0,1,2.27-1A7.674,7.674,0,0,1,52-13.82a4.462,4.462,0,0,1,1.96.35,1.957,1.957,0,0,1,.97,1.12,6.06,6.06,0,0,1,.29,2.08v.79A16.729,16.729,0,0,0,48.5-8.14Zm4.97,6.08a4.106,4.106,0,0,1-1.69.45,2.789,2.789,0,0,1-2.02-.72,2.969,2.969,0,0,1-.75-2.24,2.815,2.815,0,0,1,1.57-2.47,9.121,9.121,0,0,1,4.64-.94v4.85A9.3,9.3,0,0,1,53.47-2.06Zm25.4-3.76a42.548,42.548,0,0,0,.45-6.67v-1.47h4.85V-1.64l-2.2.26V0h7.48V-1.38l-2.37-.26V-13.82l2.45-.42v-1.41H75.15v1.38l2.57.39a41.6,41.6,0,0,1-.74,8.52c-.47,2.09-1.1,3.13-1.89,3.13a10.174,10.174,0,0,1-1.92-.14L73.34,0A7.646,7.646,0,0,0,74.7.17a3.39,3.39,0,0,0,1.97-.48,3.373,3.373,0,0,0,1.1-1.44A15.1,15.1,0,0,0,78.87-5.82Zm26.11-6.93a8.292,8.292,0,0,0-1.26,3.87H99.8v-5l2.31-.39v-1.38H94.72v1.38l2.17.39V-1.66l-2.26.28V0h7.62V-1.38L99.8-1.66V-7.25h3.89a8.806,8.806,0,0,0,1.93,5.5A6.442,6.442,0,0,0,110.8.31a7.221,7.221,0,0,0,3.63-.96,7.225,7.225,0,0,0,2.74-2.82,8.877,8.877,0,0,0,1.04-4.43,9.175,9.175,0,0,0-1.79-5.93,6.4,6.4,0,0,0-5.34-2.25,7.309,7.309,0,0,0-3.42.85A7.206,7.206,0,0,0,104.98-12.75Zm2.97-.15a3.344,3.344,0,0,1,2.99-1.6,3.215,3.215,0,0,1,3.07,1.84,10.824,10.824,0,0,1,.96,4.99,8.949,8.949,0,0,1-1.03,4.79,3.336,3.336,0,0,1-2.98,1.61,3.262,3.262,0,0,1-3.07-1.85,10.643,10.643,0,0,1-.99-5A8.755,8.755,0,0,1,107.95-12.9Zm27.86-7.82a2.712,2.712,0,0,0,.48-1.2l.45-2.51h-1.58l-.4,1.22a.828.828,0,0,1-.57.59,10.183,10.183,0,0,1-1.65.28,14.274,14.274,0,0,0-3.13.73,7.86,7.86,0,0,0-2.63,1.47,11.016,11.016,0,0,0-2.62,3.64,13.652,13.652,0,0,0-1.02,5.7q0,5.58,1.94,8.3A6.1,6.1,0,0,0,130.34.23a6.319,6.319,0,0,0,5.24-2.3c1.23-1.54,1.84-3.74,1.84-6.62q0-7.305-6.15-7.3a7.349,7.349,0,0,0-3.11.73,6.908,6.908,0,0,0-2.45,1.78,9.111,9.111,0,0,1,.71-3.37,4.692,4.692,0,0,1,1.38-1.85c1.03-.81,3.36-1.34,6.99-1.61A1.308,1.308,0,0,0,135.81-20.72Zm-7.17,6.89a4.967,4.967,0,0,1,1.89-.36,3.267,3.267,0,0,1,2.87,1.24,7.847,7.847,0,0,1,.86,4.26,13.8,13.8,0,0,1-.89,5.62,3.092,3.092,0,0,1-3.03,1.89,2.8,2.8,0,0,1-2.29-1.12,8.132,8.132,0,0,1-1.3-3.51,38.064,38.064,0,0,1-.42-6.32,3.42,3.42,0,0,1,.83-.87A5.955,5.955,0,0,1,128.64-13.83Zm14.98,1.56a8.815,8.815,0,0,0-1.05,4.4,9.242,9.242,0,0,0,1.79,5.92A6.414,6.414,0,0,0,149.71.31a7.322,7.322,0,0,0,3.65-.96,7.114,7.114,0,0,0,2.75-2.82,8.879,8.879,0,0,0,1.05-4.43,9.207,9.207,0,0,0-1.8-5.92,6.409,6.409,0,0,0-5.34-2.26,7.212,7.212,0,0,0-3.65.98A7.142,7.142,0,0,0,143.62-12.27Zm9.25,9.36a3.343,3.343,0,0,1-2.99,1.61,3.276,3.276,0,0,1-3.08-1.83,10.627,10.627,0,0,1-.98-4.96,8.787,8.787,0,0,1,1.05-4.77,3.408,3.408,0,0,1,3.01-1.61,3.223,3.223,0,0,1,3.07,1.83,10.819,10.819,0,0,1,.96,4.97A8.87,8.87,0,0,1,152.87-2.91Zm14.89-12.8-1.78.06h-3.1v1.38l1.94.39V-1.72l-1.97.34V0h2.87l1.92.06c.34.02.75.03,1.23.05s.99.03,1.54.03q4.14,0,5.98-1.28a4.225,4.225,0,0,0,1.83-3.68,3.3,3.3,0,0,0-1.13-2.51,5.217,5.217,0,0,0-3.21-1.22,4.611,4.611,0,0,0,2.27-1.34,3.33,3.33,0,0,0,.8-2.27,3.035,3.035,0,0,0-1.41-2.72c-.94-.61-2.59-.91-4.96-.91C170.5-15.79,169.56-15.77,167.76-15.71Zm5.37,5.87a3.812,3.812,0,0,1-2.69.81H167.7v-5.21h2.62a5.2,5.2,0,0,1,2.85.57,1.96,1.96,0,0,1,.82,1.71A2.81,2.81,0,0,1,173.13-9.84ZM168.8-1.51a7.966,7.966,0,0,1-1.1-.15v-5.9h3.19a5.068,5.068,0,0,1,3.1.76,2.744,2.744,0,0,1,.99,2.32,2.583,2.583,0,0,1-1.08,2.34,6.977,6.977,0,0,1-3.66.7C169.82-1.44,169.34-1.46,168.8-1.51Zm22.22-14.14h-7.36v1.38l2.11.39V-1.64l-2.14.26V0h7.48V-1.38l-2.43-.26V-7.31h7.78v5.67l-2.42.26V0h7.5V-1.38l-2.17-.26V-13.88l2.06-.39v-1.38h-7.34v1.38l2.37.39v4.94h-7.78v-4.94l2.34-.39ZM215.1-9.48c-1.37,0-2.38.01-3.04.03v-4.43l2.73-.31v-1.46h-7.95v1.41l2.34.36V-1.64l-2.48.31V0h3.33c.5,0,1.27.05,2.31.14q.51.03,1.32.09c.55.03.94.05,1.19.05A7.361,7.361,0,0,0,219.47-1a4.481,4.481,0,0,0,1.64-3.77Q221.11-9.48,215.1-9.48Zm13.8-6.17h-6.97v1.41l2.11.36V-1.66l-2,.28V0h7.02V-1.38l-2.14-.28V-13.88l1.98-.36ZM214.43-1.27a19.94,19.94,0,0,1-2.37-.17v-6.4h2.23a4.25,4.25,0,0,1,2.83.79,3.148,3.148,0,0,1,.92,2.51,3.123,3.123,0,0,1-.91,2.47A3.976,3.976,0,0,1,214.43-1.27Zm25.71-6.54-4.82,6.17-1.89.29V0H240V-1.35l-2.34-.29,2.71-3.83.76-1.24.85,1.27,2.56,3.8-1.86.29V0h7.25V-1.35l-1.63-.26-5-6.54,4.69-5.84,1.69-.34v-1.32h-5.95v1.32l2.06.34-2.68,3.64-.77,1.21-.79-1.21-2.56-3.64,1.97-.34v-1.32H233.8v1.32l1.58.34Zm35.28.82a5.344,5.344,0,0,0-1.92-1.56l4.35-5.33,2.08-.39v-1.38h-6.57v1.38l2.14.39-3.75,5.05H268.9v-5.05l2.23-.39v-1.38h-7.22v1.38l2.12.39V-1.64l-2.15.26V0h7.48V-1.38l-2.46-.26V-7.47h2.06a2.119,2.119,0,0,1,1.61.95,22.526,22.526,0,0,1,1.83,2.85,21.98,21.98,0,0,0,1.75,2.74,2,2,0,0,0,1.5.93h2.96V-1.41l-1.1-.28a2.026,2.026,0,0,1-.87-.72c-.32-.41-.73-.99-1.22-1.76A30.959,30.959,0,0,0,275.42-6.99Zm10.49-5.28a8.815,8.815,0,0,0-1.05,4.4,9.187,9.187,0,0,0,1.8,5.92A6.381,6.381,0,0,0,292,.31a7.294,7.294,0,0,0,3.65-.96,7.114,7.114,0,0,0,2.75-2.82,8.879,8.879,0,0,0,1.05-4.43,9.261,9.261,0,0,0-1.79-5.92,6.443,6.443,0,0,0-5.35-2.26,7.239,7.239,0,0,0-3.65.98A7.141,7.141,0,0,0,285.91-12.27Zm9.25,9.36a3.343,3.343,0,0,1-2.99,1.61,3.276,3.276,0,0,1-3.08-1.83,10.627,10.627,0,0,1-.98-4.96,8.69,8.69,0,0,1,1.06-4.77,3.38,3.38,0,0,1,3-1.61,3.223,3.223,0,0,1,3.07,1.83,10.819,10.819,0,0,1,.96,4.97A8.87,8.87,0,0,1,295.16-2.91ZM309.6-5.82a42.55,42.55,0,0,0,.45-6.67v-1.47h4.85V-1.64l-2.2.26V0h7.47V-1.38l-2.37-.26V-13.82l2.46-.42v-1.41H305.87v1.38l2.57.39a41.708,41.708,0,0,1-.73,8.52c-.47,2.09-1.1,3.13-1.89,3.13a10.027,10.027,0,0,1-1.92-.14L304.07,0a7.45,7.45,0,0,0,1.35.17,3.425,3.425,0,0,0,1.98-.48,3.452,3.452,0,0,0,1.1-1.44A15.482,15.482,0,0,0,309.6-5.82Zm17.58,3.9a6.266,6.266,0,0,0,5.2,2.23,9.076,9.076,0,0,0,3.27-.62,6.638,6.638,0,0,0,2.43-1.47l-.54-1.24a5.886,5.886,0,0,1-1.9.98,7.5,7.5,0,0,1-2.36.4,4.086,4.086,0,0,1-3.52-1.7,7.766,7.766,0,0,1-1.3-4.5h9.7a13.207,13.207,0,0,0,.2-2.62,5.891,5.891,0,0,0-1.54-4.16,5.494,5.494,0,0,0-4.07-1.46,7.181,7.181,0,0,0-3.82,1.02,6.824,6.824,0,0,0-2.61,2.88,9.5,9.5,0,0,0-.93,4.31A9.178,9.178,0,0,0,327.18-1.92Zm8.08-7.42h-6.77a6.833,6.833,0,0,1,1.11-3.97,3.211,3.211,0,0,1,2.61-1.19,2.712,2.712,0,0,1,2.36,1.06,5.16,5.16,0,0,1,.77,2.89A9.582,9.582,0,0,1,335.26-9.34Zm9.03-2.62a9.579,9.579,0,0,0-.91,4.23,10.046,10.046,0,0,0,.8,4.13,6.506,6.506,0,0,0,2.4,2.87,7,7,0,0,0,3.9,1.04,7.632,7.632,0,0,0,3.01-.63,6.981,6.981,0,0,0,2.24-1.43l-.54-1.13a7.908,7.908,0,0,1-1.82.88,6.874,6.874,0,0,1-2.24.36,3.966,3.966,0,0,1-3.34-1.73,8.4,8.4,0,0,1-1.28-5.06,7.694,7.694,0,0,1,1.14-4.53,3.635,3.635,0,0,1,3.12-1.59c1.31,0,2.03.26,2.14.79l.62,2.87h1.83l.12-4.34c-.81-.26-1.51-.47-2.09-.62a8.442,8.442,0,0,0-2.09-.23,7.915,7.915,0,0,0-4.3,1.12A7.14,7.14,0,0,0,344.29-11.96Zm19.47,3.82a4.126,4.126,0,0,0-2.65,3.91,4.24,4.24,0,0,0,1.34,3.37A4.956,4.956,0,0,0,365.82.31a5.469,5.469,0,0,0,2.78-.7,9.5,9.5,0,0,0,2.07-1.56v.93a1.4,1.4,0,0,0,.29,1.06,1.694,1.694,0,0,0,1.07.24,8.9,8.9,0,0,0,1.51-.14c.57-.09,1.05-.19,1.42-.28V-1.38H373.3v-9.06a8.519,8.519,0,0,0-.51-3.24,3.255,3.255,0,0,0-1.68-1.76,7.519,7.519,0,0,0-3.17-.55,9.008,9.008,0,0,0-2.6.39,14.429,14.429,0,0,0-2.28.91,8.2,8.2,0,0,0-1.36.81l.71,1.47a16.7,16.7,0,0,1,2.27-1,7.674,7.674,0,0,1,2.58-.41,4.462,4.462,0,0,1,1.96.35,1.957,1.957,0,0,1,.97,1.12,6.06,6.06,0,0,1,.29,2.08v.79A16.729,16.729,0,0,0,363.76-8.14Zm4.97,6.08a4.106,4.106,0,0,1-1.69.45,2.789,2.789,0,0,1-2.02-.72,2.969,2.969,0,0,1-.75-2.24,2.815,2.815,0,0,1,1.57-2.47,9.121,9.121,0,0,1,4.64-.94v4.85A9.3,9.3,0,0,1,368.73-2.06Z"/>
    </g>
  </g>
</svg>
