<svg xmlns="http://www.w3.org/2000/svg" width="416.03" height="55.565" viewBox="0 0 416.03 55.565">
  <g id="Сгруппировать_1" data-name="Сгруппировать 1" transform="translate(-108 -140.355)">
    <g id="Edit_Logo___Logomaster__Online_Logo_Maker_For_Your_New_Business-1" data-name="Edit Logo _ Logomaster_ Online Logo Maker For Your New Business-1" transform="translate(207.18 169.035)">
      <path id="Контур_2" data-name="Контур 2" d="M31.65-.27q0-.27-.18-.27A3.4,3.4,0,0,1,28.9-1.69a18.146,18.146,0,0,1-2.61-4.48L15.67-28.54c-.03-.09-.12-.14-.27-.14a.362.362,0,0,0-.32.14L5.58-6.12A22.037,22.037,0,0,1,3.85-2.68,4.9,4.9,0,0,1,2.18-1.01,4.47,4.47,0,0,1,.05-.54c-.16,0-.23.09-.23.27S-.11,0,.05,0Q.95,0,2.3-.09,3.83-.18,5-.18q1.26,0,2.97.09Q9.5,0,10.31,0c.15,0,.22-.09.22-.27s-.07-.27-.22-.27Q5.9-.54,5.9-3.2a6.968,6.968,0,0,1,.63-2.52L10.4-14.9h8.51L24.09-3.87a5.371,5.371,0,0,1,.58,1.93,1.1,1.1,0,0,1-.76,1.08,6.86,6.86,0,0,1-2.44.32q-.18,0-.18.27t.18.27c.51,0,1.25-.03,2.21-.09q1.53-.09,2.52-.09.81,0,2.61.09c1.2.06,2.09.09,2.66.09Q31.65,0,31.65-.27ZM10.8-15.85l3.61-8.55,4.05,8.55Zm39.76,5.72a9.4,9.4,0,0,0-5-1.53,7.227,7.227,0,0,0,3.2-2,4.547,4.547,0,0,0,1.17-3.09,3.7,3.7,0,0,0-1.8-3.28,9.226,9.226,0,0,0-5.05-1.17c-.42,0-.9.01-1.46.04s-.98.06-1.28.09a23.341,23.341,0,0,1-2.48.14q-.9,0-2.61-.09l-2.02-.05q-.09,0-.09.27t.09.27a6.877,6.877,0,0,1,2.18.25,1.473,1.473,0,0,1,.94.88,5.679,5.679,0,0,1,.25,1.98V-3.65a5.952,5.952,0,0,1-.25,2.01,1.412,1.412,0,0,1-.94.87,7.93,7.93,0,0,1-2.23.23q-.09,0-.09.27t.09.27c.87,0,1.56-.02,2.07-.05l2.61-.04c.66,0,1.28.01,1.85.04s1.06.07,1.48.1c1.05.09,1.97.13,2.75.13a9.556,9.556,0,0,0,6.03-1.82,5.75,5.75,0,0,0,2.34-4.75A4.38,4.38,0,0,0,50.56-10.13ZM40.29-20.37a3.97,3.97,0,0,1,1.62-.25,5.709,5.709,0,0,1,3.88,1.15,4.644,4.644,0,0,1,1.3,3.67c0,1.68-.44,2.8-1.33,3.35a8.346,8.346,0,0,1-4.3.83c-.93,0-1.65-.01-2.16-.04v-5.67a7.325,7.325,0,0,1,.23-2.1A1.445,1.445,0,0,1,40.29-20.37ZM49.34-5.36q0,4.815-6.21,4.82a4.742,4.742,0,0,1-3.04-.7,3.113,3.113,0,0,1-.79-2.41V-10.8a21.993,21.993,0,0,1,2.34-.09c2.62,0,4.55.49,5.81,1.48A4.873,4.873,0,0,1,49.34-5.36Zm8.74-14.65a6.291,6.291,0,0,1,2.7-.47,6.555,6.555,0,0,1,2.02.22,1.311,1.311,0,0,1,.84.83,6.846,6.846,0,0,1,.2,1.92V-3.65a5.332,5.332,0,0,1-.29,2.01,1.619,1.619,0,0,1-1.11.87,10.194,10.194,0,0,1-2.52.23q-.09,0-.09.27t.09.27c.96,0,1.71-.02,2.25-.05l3.02-.04,3.15.04c.51.03,1.23.05,2.16.05.09,0,.14-.09.14-.27s-.05-.27-.14-.27a9.866,9.866,0,0,1-2.52-.23,1.5,1.5,0,0,1-1.03-.85,5.562,5.562,0,0,1-.27-2.03V-17.42a3.5,3.5,0,0,1,.63-2.46,3.858,3.858,0,0,1,2.56-.6,6.268,6.268,0,0,1,2.75.49,2.889,2.889,0,0,1,1.42,1.62,9.961,9.961,0,0,1,.47,3.15c0,.06.08.09.25.09s.24-.03.24-.09q0-2.16.27-7.02c0-.09-.07-.14-.22-.14a.362.362,0,0,0-.32.14,1.329,1.329,0,0,1-.99.88,10.433,10.433,0,0,1-2.38.2c-.87,0-1.58.02-2.12.05l-3.92.04q-2.835,0-6.79-.09a7.211,7.211,0,0,1-1.67-.16.726.726,0,0,1-.67-.74c0-.15-.09-.23-.27-.23s-.27.08-.27.23q0,1.215-.18,3.51c-.12,1.53-.23,2.64-.32,3.33,0,.06.08.09.25.09s.25-.03.25-.09a11.259,11.259,0,0,1,.87-3.19A3.369,3.369,0,0,1,58.08-20.01ZM83.13-.95A10.528,10.528,0,0,0,88.74.54a11.982,11.982,0,0,0,5.98-1.55A11.956,11.956,0,0,0,99.09-5.2a10.609,10.609,0,0,0,1.62-5.65,11.181,11.181,0,0,0-1.28-5.18,10.571,10.571,0,0,0-3.69-4.03,10.087,10.087,0,0,0-5.56-1.55,13.5,13.5,0,0,0-5.74,1.31,11.561,11.561,0,0,0-4.64,3.85,10.06,10.06,0,0,0-1.82,6.05,11.372,11.372,0,0,0,1.35,5.45A10.219,10.219,0,0,0,83.13-.95ZM95.51-2.88a6.947,6.947,0,0,1-5.6,2.47A7.706,7.706,0,0,1,85.2-1.89,9.47,9.47,0,0,1,82.14-5.9a14.3,14.3,0,0,1-1.06-5.63,10.323,10.323,0,0,1,1.98-6.73,6.836,6.836,0,0,1,5.59-2.4,7.9,7.9,0,0,1,4.81,1.48,9.4,9.4,0,0,1,3.09,3.96,13.935,13.935,0,0,1,1.05,5.5A10.243,10.243,0,0,1,95.51-2.88ZM126.6-.27q0-.27-.09-.27a5.034,5.034,0,0,1-2.32-.59,7.1,7.1,0,0,1-2-1.82,40.114,40.114,0,0,1-2.66-3.89,34.441,34.441,0,0,0-2.45-3.51,3.687,3.687,0,0,0-2.01-1.18l3.2-4.18a15.392,15.392,0,0,1,3.56-3.69,6.6,6.6,0,0,1,3.78-1.13c.09,0,.13-.09.13-.27s-.04-.27-.13-.27l-1.4.05c-.9.06-1.72.09-2.47.09-1,0-2.03-.03-3.11-.09l-1.71-.05c-.09,0-.14.09-.14.27s.05.27.14.27a3.832,3.832,0,0,1,1.6.25.848.848,0,0,1,.51.83c0,.66-.6,1.88-1.8,3.65l-2.97,4.18q-1.08-.045-4.23.18v-5.89a5.952,5.952,0,0,1,.25-2.01,1.557,1.557,0,0,1,.97-.92,6.517,6.517,0,0,1,2.16-.27q.09,0,.09-.27t-.09-.27l-1.94.05c-1.14.06-2.09.09-2.84.09-.63,0-1.51-.03-2.65-.09l-2.03-.05q-.09,0-.09.27t.09.27a6.949,6.949,0,0,1,2.19.25,1.473,1.473,0,0,1,.94.88,5.679,5.679,0,0,1,.25,1.98V-3.65a5.622,5.622,0,0,1-.27,2.01,1.483,1.483,0,0,1-.97.87,7.623,7.623,0,0,1-2.18.23q-.09,0-.09.27t.09.27c.87,0,1.56-.02,2.07-.05l2.65-.04,2.8.04c.48.03,1.14.05,1.98.05q.09,0,.09-.27t-.09-.27a7.672,7.672,0,0,1-2.21-.23,1.4,1.4,0,0,1-.92-.85,5.89,5.89,0,0,1-.25-2.03v-6.97c.3-.03.71-.05,1.22-.05a5.439,5.439,0,0,1,2.27.38,4.032,4.032,0,0,1,1.39,1.17c.41.53,1.09,1.57,2.05,3.13.42.66,1.14,1.88,2.16,3.65.39.66.71,1.18.95,1.55a2.306,2.306,0,0,0,.56.68,1.383,1.383,0,0,0,.61.11h5.27Q126.6,0,126.6-.27Zm26.74,0c0-.18-.05-.27-.14-.27a7.671,7.671,0,0,1-2.18-.23,1.505,1.505,0,0,1-.97-.87,5.622,5.622,0,0,1-.27-2.01V-17.42a5.364,5.364,0,0,1,.27-1.98,1.573,1.573,0,0,1,.97-.88,6.877,6.877,0,0,1,2.18-.25c.09,0,.14-.09.14-.27s-.05-.27-.14-.27l-2.02.05q-1.71.09-2.7.09c-.75,0-1.67-.03-2.75-.09l-1.98-.05c-.09,0-.13.09-.13.27s.04.27.13.27a6.343,6.343,0,0,1,2.14.27,1.553,1.553,0,0,1,.94.9,5.332,5.332,0,0,1,.25,1.89L134.48-4.86V-17.33a6.274,6.274,0,0,1,.24-2.01,1.582,1.582,0,0,1,.97-.92,6.517,6.517,0,0,1,2.16-.27q.09,0,.09-.27t-.09-.27l-1.93.05c-1.14.06-2.09.09-2.84.09-.63,0-1.52-.03-2.66-.09l-2.02-.05q-.09,0-.09.27t.09.27a6.835,6.835,0,0,1,2.18.25,1.49,1.49,0,0,1,.95.88,5.984,5.984,0,0,1,.24,1.98V-3.65a5.623,5.623,0,0,1-.27,2.01,1.489,1.489,0,0,1-.96.87,7.752,7.752,0,0,1-2.19.23q-.09,0-.09.27t.09.27c.87,0,1.56-.02,2.07-.05l2.66-.04,2.79.04c.48.03,1.14.05,1.98.05q.09,0,.09-.27t-.09-.27a7.593,7.593,0,0,1-2.2-.23,1.436,1.436,0,0,1-.93-.85,5.984,5.984,0,0,1-.24-1.98l12.6-12.56V-3.65a5.952,5.952,0,0,1-.25,2.01,1.4,1.4,0,0,1-.92.87,7.417,7.417,0,0,1-2.16.23c-.09,0-.13.09-.13.27s.04.27.13.27c.84,0,1.5-.02,1.98-.05l2.75-.04,2.7.04c.51.03,1.18.05,2.02.05C153.29,0,153.34-.09,153.34-.27Zm28,0c0-.18-.04-.27-.13-.27a7.752,7.752,0,0,1-2.19-.23,1.489,1.489,0,0,1-.96-.87,5.623,5.623,0,0,1-.27-2.01V-17.42a5.365,5.365,0,0,1,.27-1.98,1.555,1.555,0,0,1,.96-.88,6.949,6.949,0,0,1,2.19-.25c.09,0,.13-.09.13-.27s-.04-.27-.13-.27l-2.03.05q-1.71.09-2.7.09c-.75,0-1.67-.03-2.75-.09l-1.98-.05c-.09,0-.13.09-.13.27s.04.27.13.27a6.3,6.3,0,0,1,2.14.27,1.573,1.573,0,0,1,.95.92,6.274,6.274,0,0,1,.24,2.01v6.3h-12.6v-6.3a5.952,5.952,0,0,1,.25-2.01,1.54,1.54,0,0,1,.96-.92,6.544,6.544,0,0,1,2.17-.27q.09,0,.09-.27t-.09-.27l-1.94.05c-1.14.06-2.09.09-2.84.09-.63,0-1.51-.03-2.65-.09l-2.03-.05q-.09,0-.09.27t.09.27a6.835,6.835,0,0,1,2.18.25,1.49,1.49,0,0,1,.95.88,5.679,5.679,0,0,1,.25,1.98V-3.65a5.622,5.622,0,0,1-.27,2.01,1.505,1.505,0,0,1-.97.87,7.671,7.671,0,0,1-2.18.23q-.09,0-.09.27t.09.27c.87,0,1.56-.02,2.07-.05l2.65-.04,2.79.04c.48.03,1.15.05,1.99.05q.09,0,.09-.27t-.09-.27a7.625,7.625,0,0,1-2.21-.23,1.4,1.4,0,0,1-.92-.85,5.89,5.89,0,0,1-.25-2.03v-6.57h12.6v6.57a6.274,6.274,0,0,1-.24,2.01,1.44,1.44,0,0,1-.93.87,7.417,7.417,0,0,1-2.16.23c-.09,0-.13.09-.13.27s.04.27.13.27c.84,0,1.5-.02,1.98-.05l2.75-.04,2.7.04c.51.03,1.19.05,2.03.05C181.3,0,181.34-.09,181.34-.27Zm8.22-.68a10.493,10.493,0,0,0,5.6,1.49,12.019,12.019,0,0,0,5.99-1.55,11.956,11.956,0,0,0,4.37-4.19,10.609,10.609,0,0,0,1.62-5.65,11.181,11.181,0,0,0-1.28-5.18,10.519,10.519,0,0,0-3.7-4.03,10.04,10.04,0,0,0-5.56-1.55,13.536,13.536,0,0,0-5.74,1.31,11.6,11.6,0,0,0-4.63,3.85,10.066,10.066,0,0,0-1.83,6.05,11.372,11.372,0,0,0,1.35,5.45A10.244,10.244,0,0,0,189.56-.95Zm12.38-1.93a6.968,6.968,0,0,1-5.61,2.47,7.677,7.677,0,0,1-4.7-1.48,9.314,9.314,0,0,1-3.06-4.01,14.3,14.3,0,0,1-1.06-5.63,10.323,10.323,0,0,1,1.98-6.73,6.829,6.829,0,0,1,5.58-2.4,7.931,7.931,0,0,1,4.82,1.48,9.305,9.305,0,0,1,3.08,3.96,13.763,13.763,0,0,1,1.06,5.5A10.3,10.3,0,0,1,201.94-2.88Zm10.87-17.13a6.291,6.291,0,0,1,2.7-.47,6.629,6.629,0,0,1,2.03.22,1.274,1.274,0,0,1,.83.83,6.486,6.486,0,0,1,.2,1.92V-3.65a5.137,5.137,0,0,1-.29,2.01,1.579,1.579,0,0,1-1.1.87,10.194,10.194,0,0,1-2.52.23q-.09,0-.09.27t.09.27c.96,0,1.71-.02,2.25-.05l3.01-.04,3.16.04c.51.03,1.23.05,2.16.05.09,0,.13-.09.13-.27s-.04-.27-.13-.27a9.866,9.866,0,0,1-2.52-.23,1.515,1.515,0,0,1-1.04-.85,5.562,5.562,0,0,1-.27-2.03V-17.42a3.5,3.5,0,0,1,.63-2.46,3.891,3.891,0,0,1,2.57-.6,6.22,6.22,0,0,1,2.74.49,2.854,2.854,0,0,1,1.42,1.62,9.681,9.681,0,0,1,.47,3.15c0,.06.09.09.25.09s.25-.03.25-.09q0-2.16.27-7.02c0-.09-.08-.14-.23-.14a.343.343,0,0,0-.31.14,1.329,1.329,0,0,1-.99.88,10.534,10.534,0,0,1-2.39.2c-.87,0-1.57.02-2.11.05l-3.92.04q-2.835,0-6.8-.09a7.119,7.119,0,0,1-1.66-.16c-.45-.1-.68-.35-.68-.74,0-.15-.09-.23-.27-.23s-.27.08-.27.23q0,1.215-.18,3.51c-.12,1.53-.22,2.64-.31,3.33q0,.09.24.09c.17,0,.25-.03.25-.09a10.9,10.9,0,0,1,.88-3.19A3.307,3.307,0,0,1,212.81-20.01ZM249.89-6.12c-.17,0-.25.04-.25.13a7.532,7.532,0,0,1-1.94,3.81,4.461,4.461,0,0,1-3.24,1.46H242.3a7.49,7.49,0,0,1-2.27-.25,1.541,1.541,0,0,1-1.02-.9,5.388,5.388,0,0,1-.27-1.96v-6.43a56.767,56.767,0,0,1,5.99.33c1.08.17,1.68.25,1.8.25.15,0,.23-.34.23-1.03,0-.64-.08-.95-.23-.95s-.76.07-1.82.2-3.06.22-5.97.25v-6.17a5.365,5.365,0,0,1,.27-1.98,1.585,1.585,0,0,1,.99-.88,7.949,7.949,0,0,1,2.3-.24h1.26a4.434,4.434,0,0,1,3.26,1.32,5.277,5.277,0,0,1,1.51,3.4c0,.09.09.14.27.14s.27-.05.27-.14c0-.87-.01-1.59-.04-2.16l-.05-2.79q0-.36-.45-.36H232.67q-.09,0-.09.27t.09.27a6.653,6.653,0,0,1,2.16.25,1.488,1.488,0,0,1,.92.88,5.931,5.931,0,0,1,.25,1.98V-3.65a6.221,6.221,0,0,1-.25,2.01,1.424,1.424,0,0,1-.92.87,7.417,7.417,0,0,1-2.16.23q-.09,0-.09.27t.09.27h16.47a.683.683,0,0,0,.54-.16.789.789,0,0,0,.14-.52c0-1.38.1-3.15.31-5.31C250.13-6.08,250.05-6.12,249.89-6.12Zm27.3,5.85q0-.27-.18-.27a3.874,3.874,0,0,1-1.96-.43,4.463,4.463,0,0,1-1.44-1.55,39.014,39.014,0,0,1-1.87-3.65L264.5-21.74a.218.218,0,0,0-.23-.18.288.288,0,0,0-.27.18l-6.48,15.8a26.774,26.774,0,0,1-1.69,3.51,3.873,3.873,0,0,1-1.51,1.51,5.322,5.322,0,0,1-2.21.38c-.15,0-.22.09-.22.27s.07.27.22.27c.54,0,1.27-.03,2.17-.09,1.02-.06,1.9-.09,2.65-.09q1.08,0,2.34.09c.78.06,1.4.09,1.85.09.15,0,.22-.09.22-.27s-.07-.27-.22-.27a4.872,4.872,0,0,1-2.48-.5,1.787,1.787,0,0,1-.81-1.66,7.692,7.692,0,0,1,.72-2.84l1.94-4.81h6.3l3.06,6.57a5.108,5.108,0,0,1,.54,1.89,1.084,1.084,0,0,1-.56,1.06,3.968,3.968,0,0,1-1.73.29q-.18,0-.18.27t.18.27q.63,0,1.8-.09t1.89-.09q.81,0,2.61.09t2.61.09Q277.19,0,277.19-.27ZM260.8-11.17l2.61-6.48,3.02,6.48Zm18.82-8.84a6.291,6.291,0,0,1,2.7-.47,6.63,6.63,0,0,1,2.03.22,1.274,1.274,0,0,1,.83.83,6.485,6.485,0,0,1,.2,1.92V-3.65a5.137,5.137,0,0,1-.29,2.01,1.579,1.579,0,0,1-1.1.87,10.194,10.194,0,0,1-2.52.23q-.09,0-.09.27t.09.27c.96,0,1.71-.02,2.25-.05l3.02-.04,3.15.04c.51.03,1.23.05,2.16.05.09,0,.13-.09.13-.27s-.04-.27-.13-.27a9.866,9.866,0,0,1-2.52-.23,1.515,1.515,0,0,1-1.04-.85,5.562,5.562,0,0,1-.27-2.03V-17.42a3.5,3.5,0,0,1,.63-2.46,3.891,3.891,0,0,1,2.57-.6,6.22,6.22,0,0,1,2.74.49,2.854,2.854,0,0,1,1.42,1.62,9.68,9.68,0,0,1,.47,3.15c0,.06.09.09.25.09s.25-.03.25-.09q0-2.16.27-7.02c0-.09-.08-.14-.23-.14a.355.355,0,0,0-.31.14,1.329,1.329,0,0,1-.99.88,10.534,10.534,0,0,1-2.39.2c-.87,0-1.57.02-2.11.05l-3.92.04q-2.835,0-6.8-.09a7.119,7.119,0,0,1-1.66-.16c-.45-.1-.68-.35-.68-.74,0-.15-.09-.23-.27-.23s-.27.08-.27.23q0,1.215-.18,3.51c-.12,1.53-.22,2.64-.31,3.33q0,.09.24.09c.17,0,.25-.03.25-.09a10.9,10.9,0,0,1,.88-3.19A3.307,3.307,0,0,1,279.62-20.01ZM305.87-1.73a5.165,5.165,0,0,1-.32-2.1v-13.5a6.494,6.494,0,0,1,.27-2.21,1.338,1.338,0,0,1,.84-.85,5.862,5.862,0,0,1,1.69-.18,5.274,5.274,0,0,1,3.93,1.46,5.806,5.806,0,0,1,1.47,4.3,4.807,4.807,0,0,1-1.38,3.71,4.7,4.7,0,0,1-3.35,1.29,7.225,7.225,0,0,1-1.4-.14c-.15,0-.22.12-.22.36,0,.15.03.23.09.23a8.906,8.906,0,0,0,1.98.18,8.832,8.832,0,0,0,3.49-.72,6.669,6.669,0,0,0,2.79-2.19,5.8,5.8,0,0,0,1.1-3.62q0-5.49-7.42-5.49c-.81,0-1.69.04-2.62.13-.33.03-.72.06-1.19.09s-.95.05-1.46.05c-.63,0-1.52-.03-2.66-.09l-2.02-.05q-.09,0-.09.27t.09.27a6.607,6.607,0,0,1,2.13.25,1.49,1.49,0,0,1,.95.88,5.678,5.678,0,0,1,.25,1.98V-3.65a5.952,5.952,0,0,1-.25,2.01,1.424,1.424,0,0,1-.92.87,7.417,7.417,0,0,1-2.16.23q-.09,0-.09.27t.09.27c.87,0,1.56-.02,2.07-.05l2.65-.04,3.33.04c.58.03,1.4.05,2.48.05.09,0,.14-.09.14-.27s-.05-.27-.14-.27a11.224,11.224,0,0,1-2.9-.27A1.856,1.856,0,0,1,305.87-1.73Z"/>
    </g>
    <g id="Edit_Logo___Logomaster__Online_Logo_Maker_For_Your_New_Business-0" data-name="Edit Logo _ Logomaster_ Online Logo Maker For Your New Business-0" transform="translate(102.296 118.575)">
      <path id="Контур_3" data-name="Контур 3" d="M21.775,57.37v.922c-.2.031-.4.061-.6.09s-.4.055-.6.08A45.291,45.291,0,0,1,5.7,58.075l.175-.889a44.581,44.581,0,0,0,14.694.357c.2-.027.4-.053.6-.084S21.574,57.4,21.775,57.37Zm2.425-.437v.926q-.3.064-.6.119l-.057.012c-.181.031-.363.064-.543.1v-.924c.2-.037.4-.074.6-.113s.4-.077.6-.118Zm8.654-1.379c-.634.209-1.27.408-1.906.6-.6.182-1.209.359-1.818.527A1.783,1.783,0,0,1,28.17,56c.214-.057.426-.113.64-.174.323-.086.648-.18.972-.273h3.072Zm3.012-2v.967q-.3.108-.6.213t-.6.213v-.959c.2-.072.4-.146.6-.217s.4-.143.6-.217Zm7.8-3.076a.232.232,0,0,0,0,.045v.939q-.3.128-.6.246c-.2.088-.4.168-.6.25v-.979c.2-.081.4-.165.6-.25s.4-.163.6-.251Zm5.921-1.522c-.288.123-.573.246-.861.367h-.012c-.141.06-.268.119-.408.18l-.987.42H44.994q.711-.3,1.42-.6l1.409-.6H48.7A1.789,1.789,0,0,1,49.584,48.952Zm11.4-5.518-.763,1.24h0c-.3.107-.606.222-.909.336s-.615.23-.921.352h0c-.33.123-.656.248-.986.377-.506.2-1.01.4-1.514.6s-.989.4-1.484.6H52.029c.666-.28,1.328-.556,2-.828h0c.226-.094.454-.188.682-.279.078-.029.156-.063.233-.094.235-.1.473-.188.706-.285q2.2-.879,4.427-1.695c.3-.11.6-.221.9-.326ZM90.618,40.1l-.176.889C82.428,39.4,74.8,40.3,67.41,42.343c-.2.055-.4.111-.6.168s-.4.114-.6.178V41.74l.6-.171c.2-.057.4-.11.6-.168C74.831,39.371,82.52,38.492,90.618,40.1ZM53.5,66.279H56c-.517.2-1.032.4-1.549.6s-1.021.4-1.531.6c-.374.146-.749.293-1.122.441-7.52,2.959-15.182,5.975-23.167,7.467A48.332,48.332,0,0,1,8.9,75.264l.2-.885c14.785,3.314,28.292-1.771,41.344-6.9.342-.135.685-.268,1.022-.4.168-.066.337-.133.5-.2.508-.2,1.019-.4,1.526-.6Zm10.914-3.04c-.709.232-1.417.471-2.118.717h-2.7c.553-.2,1.107-.4,1.663-.6q.866-.306,1.734-.6h.835A.6.6,0,0,1,64.412,63.239ZM94.295,59.72l-.2.885c-9.336-2.076-18.162-.807-26.688,1.7q-.3.087-.6.18c-.2.057-.4.119-.6.18v-.949c.2-.062.4-.123.6-.182s.4-.117.6-.178c8.562-2.495,17.447-3.737,26.885-1.639Zm-73.12.535c.2-.025.4-.055.6-.086v.922l-.6.082c-.2.027-.4.051-.6.07a46.493,46.493,0,0,1-6.535.338,44,44,0,0,1-4.433-.314q-1.718-.21-3.415-.562l.183-.885a43.538,43.538,0,0,0,14.2.51c.2-.022.4-.048.6-.075Zm3.025-.492v.928c-.024,0-.045.008-.069.01-.177.033-.354.066-.531.1-.2.037-.4.07-.6.1v-.924c.2-.033.4-.066.6-.1S24,59.8,24.2,59.763Zm7.773-1.42h1.193c-.375.123-.753.242-1.127.361q-1.432.448-2.878.838l-1.34-.033a.585.585,0,0,1-.4-.453q1.334-.332,2.655-.713h1.893Zm11.088-4.711c.2-.084.4-.17.6-.252v.98c-.2.08-.4.166-.6.25l-.6.248V53.88C42.661,53.8,42.859,53.712,43.061,53.632ZM50.5,50.519v.924c-.2.086-.4.169-.6.256s-.4.172-.6.259v-.985c.2-.086.4-.174.6-.258s.4-.171.6-.258Q50.5,50.488,50.5,50.519Zm14.738-4.781c-.153.049-.307.1-.459.147-.42.136-.84.273-1.261.417q-.918.306-1.83.637H59.07q1.633-.623,3.283-1.2h1.224l.013,0,1.157,0Z"/>
      <path id="Контур_4" data-name="Контур 4" d="M91.124,42.771l-.184.889a42.583,42.583,0,0,0-10.42-.825q-2.156.092-4.3.378a61.054,61.054,0,0,0-8.813,1.873c-.2.057-.4.113-.6.174s-.4.117-.6.177v-.948c.2-.06.4-.12.6-.177s.4-.117.6-.174C74.98,42,82.831,41.061,91.124,42.771ZM48.486,66.279c-.51.2-1.018.4-1.528.6s-1.029.4-1.544.6a99.856,99.856,0,0,1-17.36,5.26A47.331,47.331,0,0,1,8.4,72.548l.2-.881q1.522.353,3.067.592a43.83,43.83,0,0,0,4.453.453A51.678,51.678,0,0,0,30.043,71.4q2.1-.467,4.171-1.059c2.914-.822,5.789-1.807,8.637-2.863.53-.2,1.062-.4,1.59-.6s1.041-.4,1.562-.6h2.483ZM57.4,62.757q-1.548.59-3.085,1.2H51.868q1.508-.6,3.03-1.2Zm6.26-3.215c.2-.068.407-.139.611-.2a.6.6,0,0,1-.452.2Zm30.116-2.578-.2.881c-9.156-2.115-17.81-.949-26.167,1.482-.2.057-.4.113-.6.174s-.4.121-.6.18v-.947l.6-.182.315-.09c.1-.029.188-.057.285-.084A65.048,65.048,0,0,1,78.63,56.11q2.155-.229,4.323-.268a44.288,44.288,0,0,1,10.828,1.122Z"/>
      <path id="Контур_5" data-name="Контур 5" d="M28.524,73.363a.332.332,0,0,0-.045,0l-.312.061c-.489.09-.981.174-1.465.252a.23.23,0,0,0-.186.26.222.222,0,0,0,.258.186c.486-.076.981-.164,1.474-.254l.318-.061a.226.226,0,0,0,.177-.266A.221.221,0,0,0,28.524,73.363Zm3.751-.613A.229.229,0,0,0,32,72.584c-.591.148-1.182.285-1.755.414a.228.228,0,0,0-.175.271.233.233,0,0,0,.265.174.008.008,0,0,1,.006,0q.887-.2,1.768-.416a.223.223,0,0,0,.164-.273Zm-7.358,1.184c-.6.08-1.2.146-1.791.2a.226.226,0,1,0,.042.451q.905-.083,1.807-.2s.009,0,.015,0a.227.227,0,0,0,.183-.252.232.232,0,0,0-.256-.195Zm10.849-2.149a.228.228,0,0,0-.282-.152c-.589.174-1.174.34-1.735.5a.226.226,0,0,0,.1.441.063.063,0,0,1,.018-.006q.877-.237,1.747-.5a.225.225,0,0,0,.152-.281ZM21.328,74.27c-.6.031-1.206.055-1.8.064a.228.228,0,0,0,.006.455q.91-.018,1.818-.07a.132.132,0,0,0,.03,0,.225.225,0,0,0,.183-.236.218.218,0,0,0-.236-.211ZM39.21,70.682a.22.22,0,0,0-.285-.139c-.569.191-1.144.377-1.716.559a.224.224,0,0,0-.147.285.228.228,0,0,0,.259.154c.009,0,.017,0,.026-.008.573-.182,1.149-.371,1.723-.562A.227.227,0,0,0,39.21,70.682Zm-21.486,3.65c-.6-.014-1.206-.037-1.8-.076a.227.227,0,0,0-.24.215.224.224,0,0,0,.213.238c.6.037,1.212.064,1.818.076a.172.172,0,0,0,.045,0,.226.226,0,0,0-.036-.449Zm24.9-4.857a.227.227,0,0,0-.291-.133c-.567.205-1.134.41-1.7.609a.227.227,0,0,0-.138.289.222.222,0,0,0,.255.148.064.064,0,0,0,.033-.01c.57-.2,1.137-.4,1.707-.611A.228.228,0,0,0,42.625,69.475ZM46.01,68.2a.22.22,0,0,0-.291-.129c-.563.215-1.128.432-1.689.643a.228.228,0,1,0,.121.436l.038-.01q.847-.319,1.692-.646a.228.228,0,0,0,.129-.294ZM14.126,74.109q-.9-.093-1.789-.223a.226.226,0,0,0-.066.447c.6.088,1.206.162,1.81.227a.161.161,0,0,0,.062,0,.226.226,0,0,0-.017-.447Zm35.258-7.228s0-.006,0-.01a.223.223,0,0,0-.295-.125l-.342.135c-.447.176-.9.354-1.342.527a.228.228,0,0,0,.126.436.206.206,0,0,0,.042-.014c.3-.115.592-.232.889-.35.264-.105.531-.211.795-.314a.224.224,0,0,0,.13-.285Zm1.243-.6a.2.2,0,0,0,.018.088.225.225,0,0,0,.252.141l.041-.012.541-.217h-.852Zm40.55-8.311c-.594-.1-1.2-.186-1.8-.258a.226.226,0,1,0-.054.449c.591.072,1.191.16,1.783.254a.229.229,0,0,0,.261-.188.224.224,0,0,0-.189-.257ZM59.5,62.907a.228.228,0,0,0-.29-.133q-.853.314-1.7.645a.224.224,0,1,0,.163.418c.563-.217,1.127-.428,1.694-.641a.22.22,0,0,0,.132-.289ZM87.566,57.53c-.6-.049-1.209-.086-1.815-.109a.227.227,0,0,0-.018.453q.9.032,1.8.105a.3.3,0,0,0,.06,0,.226.226,0,0,0-.026-.447Zm-3.633-.142c-.6,0-1.212.014-1.818.037a.227.227,0,1,0,.017.453q.9-.037,1.8-.039a.16.16,0,0,0,.043,0,.221.221,0,0,0,.182-.221.224.224,0,0,0-.225-.226ZM69.847,59.573a.225.225,0,0,0-.276-.162c-.57.148-1.161.314-1.753.482a.224.224,0,0,0-.152.279.228.228,0,0,0,.258.162.1.1,0,0,1,.021-.006c.589-.168,1.174-.33,1.741-.48a.222.222,0,0,0,.161-.275ZM80.3,57.53c-.6.047-1.206.1-1.809.172a.227.227,0,1,0,.051.451c.6-.07,1.2-.127,1.8-.172l.023,0a.227.227,0,0,0-.06-.449ZM73.1,58.575c-.578.121-1.177.254-1.771.4a.226.226,0,0,0,.093.443l.009,0q.878-.209,1.762-.393a.233.233,0,0,0,.178-.268.227.227,0,0,0-.271-.175Zm3.581-.637c-.591.082-1.194.182-1.795.291h0a.226.226,0,0,0,.084.444q.887-.159,1.779-.287a.01.01,0,0,0,.01,0,.227.227,0,0,0,.18-.256.223.223,0,0,0-.255-.188ZM66.362,60.563a.22.22,0,0,0-.152-.148v.432h0A.227.227,0,0,0,66.362,60.563ZM32.428,56.7a.22.22,0,0,0-.281-.145l-.64.2h.934A.384.384,0,0,0,32.428,56.7Zm0,0a.22.22,0,0,0-.281-.145l-.64.2h.934A.384.384,0,0,0,32.428,56.7Zm0,0a.22.22,0,0,0-.281-.145l-.64.2h.934A.384.384,0,0,0,32.428,56.7Zm0,0a.22.22,0,0,0-.281-.145l-.64.2h.934A.384.384,0,0,0,32.428,56.7Zm0,0a.22.22,0,0,0-.281-.145l-.64.2h.934A.384.384,0,0,0,32.428,56.7Zm3.181-1.332-.5.18c-.413.15-.824.293-1.227.43a.213.213,0,0,0-.145.178.2.2,0,0,0,.007.111.223.223,0,0,0,.255.146.072.072,0,0,0,.029-.006c.522-.18,1.063-.369,1.6-.564l.18-.451a.224.224,0,0,0-.2-.024Zm-3.463,1.188-.64.2h.934a.365.365,0,0,0-.013-.055.218.218,0,0,0-.281-.144Zm.282.144a.22.22,0,0,0-.281-.145l-.64.2h.934A.384.384,0,0,0,32.428,56.7Zm0,0a.22.22,0,0,0-.281-.145l-.64.2h.934A.384.384,0,0,0,32.428,56.7Zm0,0a.22.22,0,0,0-.281-.145l-.64.2h.934A.384.384,0,0,0,32.428,56.7Zm0,0a.22.22,0,0,0-.281-.145l-.64.2h.934A.384.384,0,0,0,32.428,56.7Zm0,0a.22.22,0,0,0-.281-.145l-.64.2h.934A.384.384,0,0,0,32.428,56.7ZM21.493,59.087q-.159.023-.318.041c-.2.031-.4.057-.6.082-.3.035-.6.072-.894.1a.226.226,0,1,0,.051.449c.279-.029.562-.062.843-.1.2-.023.4-.049.6-.08.126-.016.255-.033.381-.051h.009a.229.229,0,0,0,.184-.256.225.225,0,0,0-.256-.19Zm-3.628.387c-.606.043-1.222.072-1.821.09a.227.227,0,0,0,.011.453q.92-.026,1.839-.092a.061.061,0,0,0,.027,0,.226.226,0,0,0-.056-.447Zm-3.643.1q-.912-.01-1.824-.057a.222.222,0,0,0-.237.213.225.225,0,0,0,.214.236c.608.033,1.227.055,1.842.061a.339.339,0,0,0,.045,0,.228.228,0,0,0-.04-.451Zm-3.641-.195q-.907-.086-1.809-.213a.227.227,0,0,0-.256.193.224.224,0,0,0,.192.254c.606.088,1.222.16,1.828.217a.23.23,0,0,0,.249-.2.227.227,0,0,0-.2-.248Zm32.147-6.563a.225.225,0,0,0-.267-.133v.486c.047-.021.1-.038.143-.061a.221.221,0,0,0,.124-.292Zm6.749-2.879a.227.227,0,0,0-.3-.117l-.292.123a.594.594,0,0,1,.36.337l.108-.045a.229.229,0,0,0,.121-.3Zm38.636-8.753q-.912-.131-1.83-.216a.226.226,0,1,0-.043.45c.6.057,1.213.129,1.81.213a.47.47,0,0,0,.075,0,.228.228,0,0,0,.18-.192.225.225,0,0,0-.192-.255ZM59.644,45.771a.08.08,0,0,0-.019-.033.115.115,0,0,0-.038-.047.214.214,0,0,0-.234-.052c-.087.032-.172.065-.258.1-.1.039-.211.082-.315.121l-.66.254c-.159.063-.317.123-.477.187a.223.223,0,0,0-.063.039.225.225,0,0,0,.186.394.2.2,0,0,0,.042-.01c.265-.1.531-.21.795-.309.238-.094.469-.184.706-.273h0c.065-.027.135-.054.2-.078a.226.226,0,0,0,.131-.292Zm24.8-4.936q-.921-.049-1.844-.062a.229.229,0,0,0-.227.226.226.226,0,0,0,.225.228c.608.009,1.221.026,1.82.06a.176.176,0,0,0,.056,0,.23.23,0,0,0,.183-.211.222.222,0,0,0-.213-.239Zm-3.681-.044c-.609.018-1.228.047-1.841.09a.227.227,0,0,0,.03.453q.91-.063,1.821-.091c.013,0,.024,0,.037,0a.227.227,0,0,0-.047-.449ZM66.582,43.428a.225.225,0,0,0-.282-.152l-.09.027v.474c.075-.024.147-.045.218-.066a.229.229,0,0,0,.154-.283Zm3.538-.94a.227.227,0,0,0-.273-.168q-.892.217-1.779.457a.226.226,0,1,0,.1.44c.007,0,.013,0,.019-.006q.881-.238,1.768-.45a.228.228,0,0,0,.163-.273Zm6.968-1.445c-.6.062-1.212.141-1.825.228a.228.228,0,0,0,.064.45q.9-.131,1.812-.229c.006,0,.009,0,.016,0a.228.228,0,0,0,.186-.246.232.232,0,0,0-.253-.2Zm-3.644.521c-.594.1-1.2.223-1.8.352a.226.226,0,0,0-.177.268.23.23,0,0,0,.264.176s0,0,.007,0c.6-.126,1.2-.244,1.79-.349a.218.218,0,0,0,.184-.261.23.23,0,0,0-.265-.184ZM23.773,58.708c-.057.01-.116.021-.174.029-.1.023-.2.039-.306.059a.228.228,0,1,0,.08.448c.076-.016.15-.027.226-.043s.168-.031.255-.049c.114-.02.229-.039.346-.064v-.459l-.427.079ZM32.428,56.7a.22.22,0,0,0-.281-.145l-.64.2h.934A.384.384,0,0,0,32.428,56.7ZM76.134,42.754l4.224-.79,2.624,14.047-4.224.789Zm-45,15.589-3.343,1,.032.17,1.34.033H32.2l-.158-.838-.066-.361Zm1.889,5.613H28.65l-.222-1.2H32.8Zm1.283,6.86-4.183,1.012-.078-.426-.735-3.922-.223-1.2h4.37l.113.6.112.6.534,2.864ZM16.225,73.273l-4.474-.544L9.542,60.907l4.349-.121Zm33.33-16.735a1.789,1.789,0,0,1-.858.217H45.225l-.114-.6-.111-.6h3.7a.6.6,0,0,0,.585-.471l.153.816.12.64Zm.56,3H45.744l-.223-1.2h4.37Zm.826,4.414H46.569l-.225-1.2h4.373ZM47.68,66.279l-.622.295L47,66.279Zm17.29-19.34H60.6l-.054-.3,3.033-.9.013,0,1.157,0,.028.148Zm-1.806,9.816h-.729l-.114-.6-.066-.352V55.8l-.044-.244h.954a.6.6,0,0,0,.6-.6V50.517a.6.6,0,0,0-.6-.6H61.158l-.112-.6-.113-.6h2.232a.08.08,0,0,1,.03,0,1.8,1.8,0,0,1,1.771,1.8v4.436a1.8,1.8,0,0,1-1.8,1.8Zm1.26,2.187a.594.594,0,0,1-.6.6h-.87l-.223-1.2h1.093A.6.6,0,0,1,64.424,58.942Zm2.8.071-.418.123-.6.179V53.567l.6,3.211.315,1.684Z"/>
      <path id="Контур_6" data-name="Контур 6" d="M64.388,39.122v1.2H21.775V63.278a3,3,0,0,0,2.439,2.946,2.811,2.811,0,0,0,.562.055H60.787v1.2H24.776a4.208,4.208,0,0,1-4.2-4.2V39.122ZM65.45,27.26A3.6,3.6,0,0,0,61.3,24.307l-5.653.951-.609.1-1.141.192-.087.012-2.205.376-.7.117-.252.041-5.955,1-.678.115-.667.111-.2.032-2.485.42-.7.118h0l-.114.02L33.53,28.978l-.7.12-.1.015-3.235.547-.7.117-.318.054-2.68.45a3.448,3.448,0,0,0-.774.223,3.6,3.6,0,0,0-2.179,3.924l.7,4.156.068.4.777-.131,21.354-3.6,5.43-.912,5.519-.928,5.426-.914h0l4.1-.691L65.45,27.26ZM24.1,38.293l-.666-3.963a3,3,0,0,1,2.461-3.457l2.674-.451L34.1,36.61l-10,1.683Zm15.427-2.6L34,29.508l5.74-.967,5.525,6.19-5.741.966Zm11.169-1.878-5.521-6.191,5.511-.927,5.526,6.188-5.516.93Zm10.945-1.842L56.12,25.786,61.4,24.9a2.988,2.988,0,0,1,3.457,2.46l.666,3.964Z"/>
      <path id="Контур_7" data-name="Контур 7" d="M66.042,27.16a4.184,4.184,0,0,0-4.14-3.505,4.286,4.286,0,0,0-.7.058L25.694,29.69a4.291,4.291,0,0,0-.855.238l-.006,0a4.164,4.164,0,0,0-2.044,1.74v0a4.162,4.162,0,0,0-.54,2.854l.7,4.156.075.438.093.556,1.368-.232,1.93-.323,40.5-6.815ZM50,33.937l-1.522.255-3.207.54-5.741.966L34.1,36.61l-10,1.684-.666-3.963a3,3,0,0,1,2.461-3.457l2.674-.451,1.4-.233h0l2.635-.444.7-.117h0l.7-.119,5.74-.967.7-.117.7-.117,2.635-.443.7-.117h0l.7-.118,5.511-.927.7-.117.7-.117,2.641-.447h0l.7-.116.7-.118L61.4,24.9a2.988,2.988,0,0,1,3.457,2.46l.666,3.964-3.887.654-.7.117-4.026.678-.7.117-5.516.931-.7.114Z"/>
      <path id="Контур_8" data-name="Контур 8" d="M23,39.122V63.278a4.155,4.155,0,0,0,1.215,2.946,4.044,4.044,0,0,0,.825.656,4.184,4.184,0,0,0,2.16.6H63.209a4.208,4.208,0,0,0,4.2-4.2V39.122ZM66.21,63.278a3,3,0,0,1-3,3H27.2a3,3,0,0,1-3-3V40.322H66.21Z"/>
      <path id="Контур_9" data-name="Контур 9" d="M20.693,40.279l-.865-5.15a4.2,4.2,0,0,1,3.427-4.836l1.629-.373.269,1.17-1.68.385a3,3,0,0,0-2.461,3.455l.666,3.967,2.638-.444.2,1.185ZM23.6,45.738H66.81v1.2H23.6Zm40.824,13.2a.594.594,0,0,1-.6.6H29.161l-1.34-.033a.585.585,0,0,1-.4-.453h0a.6.6,0,0,1,.592-.713h35.81A.6.6,0,0,1,64.424,58.942Zm0,4.414a.6.6,0,0,1-.6.6H28.014a.6.6,0,0,1,0-1.2h35.81a.6.6,0,0,1,.6.6Z"/>
      <path id="Контур_10" data-name="Контур 10" d="M31.965,46.34l4.086-6.617h4.085L36.051,46.34Z"/>
      <path id="Контур_11" data-name="Контур 11" d="M41.212,39.122l-.372.6-.37.6-3.345,5.416-.564.915-.51-.314-.511-.316.178-.285,3.343-5.416H36.387L33.04,45.738l-.368.6-.195.314-.511-.314-.512-.316.176-.285,3.346-5.416.369-.6.373-.6Zm2.081,7.218,4.086-6.617h4.086L47.379,46.34Z"/>
      <path id="Контур_12" data-name="Контур 12" d="M52.54,39.122l-.371.6-.37.6-3.346,5.416-.564.915-.51-.314-.51-.316.177-.285,3.343-5.416H47.715l-3.346,5.416-.37.6-.194.314-.51-.314-.514-.316.177-.285,3.347-5.416.369-.6.372-.6ZM54.4,46.34l4.087-6.617h4.085L58.483,46.34Z"/>
      <path id="Контур_13" data-name="Контур 13" d="M63.644,39.122l-.373.6-.369.6-1.92,3.112h0l-.762,1.24h0l-.627,1.017-.029.047-.247.4h0l-.316.512-.39-.239-.12-.075-.363-.226-.146-.09.176-.285.231-.377h0l.779-1.267,2.329-3.772H58.817l-3.168,5.131-.176.285-.369.6-.2.314-.51-.314-.37-.228h0l-.14-.088.177-.285,3.346-5.416.368-.6.373-.6ZM28.679,29.648l6.114,6.84,4.03-.677-6.03-6.754Z"/>
      <path id="Контур_14" data-name="Контур 14" d="M39.994,36.223l-5.429.912-.468-.526-5.531-6.187-.336-.375.243-.216.2-.183h0l.446-.4.265.3.1.114.472.528h0l5.053,5.654L37.65,35.4,32.6,29.744l-.259-.289.385-.342.062-.056.45-.4.288.321.472.529L39.525,35.7Zm-.067-8.373,6.039,6.763,4.028-.676-5.984-6.71Z"/>
      <path id="Контур_15" data-name="Контур 15" d="M51.166,34.348l-5.43.912-.469-.529-5.526-6.19-.261-.291.372-.334.076-.066.447-.4.261.294.033.036.471.529,5.053,5.66,2.628-.442-5.047-5.662-.212-.238.447-.4.015-.012.435-.387.243.272.471.528,5.521,6.191Zm-.347-8.4,6.1,6.822,4.029-.675-5.963-6.688Z"/>
      <path id="Контур_16" data-name="Контур 16" d="M62.116,32.511l-5.428.912,0,0-.475-.531L50.684,26.7l-.313-.347.285-.256.162-.145.447-.4.273.306.069.078.474.528,5.063,5.663,2.628-.444L54.725,26.02h0l-.186-.21.447-.4.057-.051.391-.347.218.246.471.527,5.519,6.192.471.529h0Zm1.048,16.808H58.728a1.2,1.2,0,0,0-1.2,1.2v4.436a1.2,1.2,0,0,0,1.2,1.2h4.436a1.2,1.2,0,0,0,1.2-1.2V50.518a1.2,1.2,0,0,0-1.2-1.2Zm.6,5.635a.6.6,0,0,1-.6.6H58.728a.6.6,0,0,1-.6-.6V50.518a.6.6,0,0,1,.6-.6h4.436a.6.6,0,0,1,.6.6Z"/>
      <path id="Контур_17" data-name="Контур 17" d="M63.194,48.722a.083.083,0,0,0-.03,0H58.728a1.8,1.8,0,0,0-1.8,1.8v4.436a1.8,1.8,0,0,0,1.8,1.8h4.436a1.8,1.8,0,0,0,1.8-1.8V50.519A1.8,1.8,0,0,0,63.194,48.722Zm.57,6.232a.6.6,0,0,1-.6.6H58.728a.6.6,0,0,1-.6-.6V50.518a.6.6,0,0,1,.6-.6h4.436a.6.6,0,0,1,.6.6Zm-20.7-3.25V54.61c.2-.084.4-.17.6-.25v-2.9c-.2.084-.4.168-.6.246Zm0,0V54.61c.2-.084.4-.17.6-.25v-2.9c-.2.084-.4.168-.6.246Zm0,0V54.61c.2-.084.4-.17.6-.25v-2.9c-.2.084-.4.168-.6.246Zm5.662-2.385H44.261a1.2,1.2,0,0,0-1.2,1.2v4.436a1.2,1.2,0,0,0,1.2,1.2H48.7a1.2,1.2,0,0,0,1.2-1.2V50.518a1.2,1.2,0,0,0-1.174-1.2Zm.573,5.635a.538.538,0,0,1-.015.127v0a.6.6,0,0,1-.585.471H44.26a.6.6,0,0,1-.6-.6V50.518a.232.232,0,0,1,0-.045.6.6,0,0,1,.6-.555H48.7a.594.594,0,0,1,.551.366.614.614,0,0,1,.048.233v4.437ZM43.061,51.7V54.61c.2-.084.4-.17.6-.25v-2.9c-.2.084-.4.168-.6.246Zm0,0V54.61c.2-.084.4-.17.6-.25v-2.9c-.2.084-.4.168-.6.246Zm0,0V54.61c.2-.084.4-.17.6-.25v-2.9c-.2.084-.4.168-.6.246Z"/>
      <path id="Контур_18" data-name="Контур 18" d="M43.061,51.7V54.61c.2-.084.4-.17.6-.25v-2.9c-.2.084-.4.168-.6.246Zm0,0V54.61c.2-.084.4-.17.6-.25v-2.9c-.2.084-.4.168-.6.246Zm0-.978v3.885c.2-.084.4-.17.6-.25V50.519a.232.232,0,0,1,0-.045c-.2.088-.4.169-.6.252Zm0,0v3.885c.2-.084.4-.17.6-.25V50.519a.232.232,0,0,1,0-.045c-.2.088-.4.169-.6.252Zm0,0v3.885c.2-.084.4-.17.6-.25V50.519a.232.232,0,0,1,0-.045c-.2.088-.4.169-.6.252Zm0,0v3.885c.2-.084.4-.17.6-.25V50.519a.232.232,0,0,1,0-.045c-.2.088-.4.169-.6.252Zm0,0v3.885c.2-.084.4-.17.6-.25V50.519a.232.232,0,0,1,0-.045c-.2.088-.4.169-.6.252Zm0,.978V54.61c.2-.084.4-.17.6-.25v-2.9c-.2.084-.4.168-.6.246Zm0,0V54.61c.2-.084.4-.17.6-.25v-2.9c-.2.084-.4.168-.6.246Zm0,0V54.61c.2-.084.4-.17.6-.25v-2.9c-.2.084-.4.168-.6.246Zm0,0V54.61c.2-.084.4-.17.6-.25v-2.9c-.2.084-.4.168-.6.246Zm0,0V54.61c.2-.084.4-.17.6-.25v-2.9c-.2.084-.4.168-.6.246Zm0,0V54.61c.2-.084.4-.17.6-.25v-2.9c-.2.084-.4.168-.6.246Zm0,0V54.61c.2-.084.4-.17.6-.25v-2.9c-.2.084-.4.168-.6.246Zm0,0V54.61c.2-.084.4-.17.6-.25v-2.9c-.2.084-.4.168-.6.246Zm0,0V54.61c.2-.084.4-.17.6-.25v-2.9c-.2.084-.4.168-.6.246Zm0,0V54.61c.2-.084.4-.17.6-.25v-2.9c-.2.084-.4.168-.6.246Zm0,0V54.61c.2-.084.4-.17.6-.25v-2.9c-.2.084-.4.168-.6.246Zm0,0V54.61c.2-.084.4-.17.6-.25v-2.9c-.2.084-.4.168-.6.246Zm0,0V54.61c.2-.084.4-.17.6-.25v-2.9c-.2.084-.4.168-.6.246Zm0,0V54.61c.2-.084.4-.17.6-.25v-2.9c-.2.084-.4.168-.6.246Zm7.433-1.248a1.8,1.8,0,0,0-1.8-1.738H44.26a1.8,1.8,0,0,0-1.8,1.8v4.436a1.8,1.8,0,0,0,1.8,1.8H48.7a1.8,1.8,0,0,0,1.8-1.8V50.519a.444.444,0,0,0,0-.063Zm-1.2,4.5a.538.538,0,0,1-.015.127v0a.6.6,0,0,1-.585.471H44.26a.6.6,0,0,1-.6-.6V50.518a.232.232,0,0,1,0-.045.6.6,0,0,1,.6-.555H48.7a.594.594,0,0,1,.551.366.614.614,0,0,1,.048.233v4.437ZM43.061,51.7V54.61c.2-.084.4-.17.6-.25v-2.9c-.2.084-.4.168-.6.246Zm0,0V54.61c.2-.084.4-.17.6-.25v-2.9c-.2.084-.4.168-.6.246Zm0,0V54.61c.2-.084.4-.17.6-.25v-2.9c-.2.084-.4.168-.6.246Zm0,0V54.61c.2-.084.4-.17.6-.25v-2.9c-.2.084-.4.168-.6.246Zm0,0V54.61c.2-.084.4-.17.6-.25v-2.9c-.2.084-.4.168-.6.246Zm0,0V54.61c.2-.084.4-.17.6-.25v-2.9c-.2.084-.4.168-.6.246Zm0,0V54.61c.2-.084.4-.17.6-.25v-2.9c-.2.084-.4.168-.6.246Zm0,0V54.61c.2-.084.4-.17.6-.25v-2.9c-.2.084-.4.168-.6.246Zm0,0V54.61c.2-.084.4-.17.6-.25v-2.9c-.2.084-.4.168-.6.246Zm0,0V54.61c.2-.084.4-.17.6-.25v-2.9c-.2.084-.4.168-.6.246Zm0,0V54.61c.2-.084.4-.17.6-.25v-2.9c-.2.084-.4.168-.6.246Zm0,0V54.61c.2-.084.4-.17.6-.25v-2.9c-.2.084-.4.168-.6.246Zm0,0V54.61c.2-.084.4-.17.6-.25v-2.9c-.2.084-.4.168-.6.246Zm0,0V54.61c.2-.084.4-.17.6-.25v-2.9c-.2.084-.4.168-.6.246Zm0-.978v3.885c.2-.084.4-.17.6-.25V50.519a.232.232,0,0,1,0-.045c-.2.088-.4.169-.6.252Zm0,0v3.885c.2-.084.4-.17.6-.25V50.519a.232.232,0,0,1,0-.045c-.2.088-.4.169-.6.252Zm0,0v3.885c.2-.084.4-.17.6-.25V50.519a.232.232,0,0,1,0-.045c-.2.088-.4.169-.6.252Zm0,0v3.885c.2-.084.4-.17.6-.25V50.519a.232.232,0,0,1,0-.045c-.2.088-.4.169-.6.252Zm0,0v3.885c.2-.084.4-.17.6-.25V50.519a.232.232,0,0,1,0-.045c-.2.088-.4.169-.6.252Zm0,.978V54.61c.2-.084.4-.17.6-.25v-2.9c-.2.084-.4.168-.6.246Zm0,0V54.61c.2-.084.4-.17.6-.25v-2.9c-.2.084-.4.168-.6.246Zm0,0V54.61c.2-.084.4-.17.6-.25v-2.9c-.2.084-.4.168-.6.246Zm-8.995-2.385H29.631a1.2,1.2,0,0,0-1.2,1.2v4.436a1.2,1.2,0,0,0,1.2,1.2h4.435a1.2,1.2,0,0,0,1.2-1.2V50.518a1.2,1.2,0,0,0-1.2-1.2Zm.6,5.635a.6.6,0,0,1-.6.6H29.631a.6.6,0,0,1-.6-.6V50.518a.6.6,0,0,1,.6-.6h4.435a.6.6,0,0,1,.6.6Z"/>
      <path id="Контур_19" data-name="Контур 19" d="M34.066,48.718H29.631a1.8,1.8,0,0,0-1.8,1.8v4.436a1.808,1.808,0,0,0,1.8,1.8h4.435a1.79,1.79,0,0,0,1.563-.912,1.613,1.613,0,0,0,.18-.451,1.6,1.6,0,0,0,.057-.438V50.519a1.8,1.8,0,0,0-1.8-1.8Zm.6,6.236a.6.6,0,0,1-.6.6H29.631a.6.6,0,0,1-.6-.6V50.518a.6.6,0,0,1,.6-.6h4.435a.6.6,0,0,1,.6.6Z"/>
    </g>
    <g id="Edit_Logo___Logomaster__Online_Logo_Maker_For_Your_New_Business-2" data-name="Edit Logo _ Logomaster_ Online Logo Maker For Your New Business-2" transform="translate(206.57 192.07)">
      <path id="Контур_1" data-name="Контур 1" d="M15.07-.24a.5.5,0,0,0-.24-.03,12.939,12.939,0,0,1-1.75-.07.566.566,0,0,1-.52-.34,4.475,4.475,0,0,1-.09-1.14V-12.25a2.437,2.437,0,0,1,.15-.99.8.8,0,0,1,.55-.43,4.339,4.339,0,0,1,1.26-.13c.03,0,.04-.04.04-.13s-.01-.14-.04-.14H3.71c-.03,0-.04.05-.04.14s.01.13.04.13a3.842,3.842,0,0,1,1.51.22,1.063,1.063,0,0,1,.64.58,2.735,2.735,0,0,1,.15,1,23.064,23.064,0,0,1-.6,4.71A16.448,16.448,0,0,1,3.6-2.4C2.79-.99,1.81-.29.65-.29c-.1,0-.17.01-.19.04a.532.532,0,0,0-.03.23A4.615,4.615,0,0,0,.5.77,23.932,23.932,0,0,1,.68,3.74c0,.07.04.11.13.11s.14-.04.14-.11A4.267,4.267,0,0,1,1.73.84,2.918,2.918,0,0,1,3.96,0h7.05a3.69,3.69,0,0,1,2.77.9,4.019,4.019,0,0,1,.85,2.84c0,.07.05.11.14.11s.13-.04.13-.11A24.464,24.464,0,0,1,15.06.65c.03-.36.04-.57.04-.65A.526.526,0,0,0,15.07-.24ZM11.01-12.2V-1.87a3.55,3.55,0,0,1-.09,1.01.49.49,0,0,1-.42.31A10.08,10.08,0,0,1,9.14-.5H3.02A7.053,7.053,0,0,0,4.94-3.51,24.993,24.993,0,0,0,6.11-7.6c.26-1.34.44-2.45.53-3.34.08-.87.14-1.46.2-1.78a1.01,1.01,0,0,1,.36-.66,1.711,1.711,0,0,1,.95-.19h1.1a10.846,10.846,0,0,1,1.28.05.461.461,0,0,1,.4.31A4.145,4.145,0,0,1,11.01-12.2ZM25.17-5.06a4.628,4.628,0,0,0-2.5-.77,3.687,3.687,0,0,0,1.6-1,2.256,2.256,0,0,0,.58-1.54,1.859,1.859,0,0,0-.9-1.65,4.608,4.608,0,0,0-2.52-.58c-.21,0-.45.01-.73.02s-.49.03-.64.05c-.42.04-.84.06-1.24.06-.3,0-.74-.01-1.31-.04l-1.01-.02c-.03,0-.05.04-.05.13s.02.14.05.14a3.581,3.581,0,0,1,1.09.12.737.737,0,0,1,.47.44,2.7,2.7,0,0,1,.13.99v6.89a2.8,2.8,0,0,1-.13,1,.713.713,0,0,1-.47.44,4.141,4.141,0,0,1-1.11.11c-.03,0-.05.04-.05.13s.02.14.05.14c.43,0,.78-.01,1.03-.02l1.31-.03c.33,0,.64.01.92.03s.53.03.74.04c.53.05.99.07,1.38.07a4.733,4.733,0,0,0,3.01-.91A2.878,2.878,0,0,0,26.04-3.2,2.174,2.174,0,0,0,25.17-5.06Zm-5.14-5.13a2.09,2.09,0,0,1,.81-.12,2.863,2.863,0,0,1,1.94.57,2.33,2.33,0,0,1,.65,1.84,1.848,1.848,0,0,1-.66,1.68,4.287,4.287,0,0,1-2.15.41c-.47,0-.83-.01-1.08-.02V-8.67a3.807,3.807,0,0,1,.11-1.04A.758.758,0,0,1,20.03-10.19Zm4.53,7.51c0,1.61-1.04,2.41-3.11,2.41a2.413,2.413,0,0,1-1.52-.35,1.543,1.543,0,0,1-.39-1.2V-5.4a10.565,10.565,0,0,1,1.17-.05,4.616,4.616,0,0,1,2.9.75A2.431,2.431,0,0,1,24.56-2.68ZM39.51-.14c0-.09-.03-.13-.09-.13a1.954,1.954,0,0,1-.98-.21,2.3,2.3,0,0,1-.72-.78,17.439,17.439,0,0,1-.94-1.82l-3.62-7.79c-.02-.06-.05-.09-.11-.09a.142.142,0,0,0-.14.09l-3.24,7.9a12.006,12.006,0,0,1-.85,1.75,1.881,1.881,0,0,1-.75.76,2.588,2.588,0,0,1-1.1.19c-.08,0-.12.04-.12.13s.04.14.12.14c.27,0,.63-.02,1.08-.05.51-.03.95-.04,1.33-.04.36,0,.75.01,1.17.04.39.03.69.05.92.05.07,0,.11-.05.11-.14s-.04-.13-.11-.13a2.373,2.373,0,0,1-1.24-.25.885.885,0,0,1-.4-.83,3.823,3.823,0,0,1,.36-1.42l.96-2.41h3.16l1.53,3.29a2.535,2.535,0,0,1,.27.94.544.544,0,0,1-.28.53,1.941,1.941,0,0,1-.87.15c-.06,0-.09.04-.09.13s.03.14.09.14c.21,0,.51-.02.9-.05s.7-.04.94-.04c.27,0,.71.01,1.31.04S39.15,0,39.42,0C39.48,0,39.51-.05,39.51-.14Zm-8.2-5.44,1.31-3.24,1.51,3.24Zm19.68-4.53h.58a2.617,2.617,0,0,1,.97.13.726.726,0,0,1,.43.41,2.869,2.869,0,0,1,.11.9v6.85a3.1,3.1,0,0,1-.12,1,.735.735,0,0,1-.47.44,3.887,3.887,0,0,1-1.08.11c-.04,0-.06.04-.06.13s.02.14.06.14c.42,0,.75-.01.99-.02l1.38-.03,1.35.03c.25.01.6.02,1.03.02.03,0,.05-.05.05-.14s-.02-.13-.05-.13a4.141,4.141,0,0,1-1.11-.11.713.713,0,0,1-.47-.44,2.8,2.8,0,0,1-.13-1V-8.71a2.7,2.7,0,0,1,.13-.99.73.73,0,0,1,.48-.44,3.747,3.747,0,0,1,1.1-.12c.03,0,.05-.05.05-.14s-.02-.13-.05-.13H47.34c-.03,0-.05.04-.05.13s.02.14.05.14a2.318,2.318,0,0,1,1.29.25,1.218,1.218,0,0,1,.35,1.03c0,.1-.01.32-.04.65a22.7,22.7,0,0,1-1.02,5.21c-.45,1.24-1.12,1.86-2.02,1.86-.66,0-.99.25-.99.74s.3.72.9.72a2.245,2.245,0,0,0,2.02-1.38,10.409,10.409,0,0,0,1.06-3.16c.21-1.19.41-2.66.61-4.42a4.074,4.074,0,0,1,.18-.9.615.615,0,0,1,.38-.36A3.309,3.309,0,0,1,50.99-10.11Zm21.18.08a4.911,4.911,0,0,0-2.75-.77,6.314,6.314,0,0,0-2.69.61,5.675,5.675,0,0,0-2.19,1.82,5.1,5.1,0,0,0-.97,2.85H60.71V-8.67a3.1,3.1,0,0,1,.12-1,.8.8,0,0,1,.49-.46,3.283,3.283,0,0,1,1.08-.13c.03,0,.04-.05.04-.14s-.01-.13-.04-.13l-.97.02c-.57.03-1.04.04-1.42.04-.31,0-.76-.01-1.33-.04l-1.01-.02c-.03,0-.04.04-.04.13s.01.14.04.14a3.581,3.581,0,0,1,1.09.12.753.753,0,0,1,.48.44,2.992,2.992,0,0,1,.12.99v6.89a2.76,2.76,0,0,1-.14,1,.752.752,0,0,1-.48.44,4.073,4.073,0,0,1-1.09.11c-.03,0-.05.04-.05.13s.02.14.05.14c.43,0,.78-.01,1.03-.02l1.33-.03,1.4.03c.24.01.57.02.99.02.03,0,.04-.05.04-.14s-.01-.13-.04-.13a4,4,0,0,1-1.1-.11.746.746,0,0,1-.47-.43,3.089,3.089,0,0,1-.12-1.01V-5.11h2.86a5.941,5.941,0,0,0,.66,2.69A4.975,4.975,0,0,0,66.05-.46a4.965,4.965,0,0,0,2.7.73,5.765,5.765,0,0,0,2.93-.78A5.909,5.909,0,0,0,73.86-2.6a5.3,5.3,0,0,0,.81-2.82,5.392,5.392,0,0,0-.66-2.59A5.329,5.329,0,0,0,72.17-10.03ZM71.28-.77a3.32,3.32,0,0,1-1.9.57,3.43,3.43,0,0,1-2.21-.78,5.154,5.154,0,0,1-1.5-2.1,8.069,8.069,0,0,1-.53-2.98A4.973,4.973,0,0,1,66-9.18a3.012,3.012,0,0,1,2.54-1.11,4.114,4.114,0,0,1,2.41.73,4.7,4.7,0,0,1,1.59,1.99,6.688,6.688,0,0,1,.55,2.75,5.853,5.853,0,0,1-.48,2.45A3.85,3.85,0,0,1,71.28-.77ZM84.82-5.22a5.164,5.164,0,0,0-2.95-.7,15.229,15.229,0,0,0-2.54.25V-8.69a2.7,2.7,0,0,1,.13-.99.788.788,0,0,1,.5-.44,3.919,3.919,0,0,1,1.14-.12h.86a2.479,2.479,0,0,1,1.76.67,2.594,2.594,0,0,1,.81,1.74c0,.04.04.06.13.06s.14-.02.14-.06l-.03-1.08c-.03-.66-.04-1.14-.04-1.44,0-.12-.08-.18-.23-.18H76.29c-.03,0-.05.04-.05.13s.02.14.05.14a3.626,3.626,0,0,1,1.09.12.737.737,0,0,1,.47.44,2.94,2.94,0,0,1,.13.99v6.89a3.05,3.05,0,0,1-.13,1,.713.713,0,0,1-.47.44,4.227,4.227,0,0,1-1.12.11c-.03,0-.04.04-.04.13s.01.14.04.14c.44,0,.79-.01,1.04-.02l1.31-.03c.33,0,.63.01.92.03s.53.03.74.04c.53.05.98.07,1.37.07a4.744,4.744,0,0,0,3.02-.91A2.878,2.878,0,0,0,85.83-3.2,2.306,2.306,0,0,0,84.82-5.22ZM83.58-.91a3.615,3.615,0,0,1-2.36.64,2.34,2.34,0,0,1-1.51-.35,1.543,1.543,0,0,1-.38-1.2V-5.36a9.3,9.3,0,0,1,1.53-.13,4.033,4.033,0,0,1,2.57.71,2.417,2.417,0,0,1,.92,2.03A2.272,2.272,0,0,1,83.58-.91Zm6.43.44a5.347,5.347,0,0,0,2.8.74A5.931,5.931,0,0,0,95.8-.51,5.863,5.863,0,0,0,97.99-2.6a5.3,5.3,0,0,0,.81-2.82,5.607,5.607,0,0,0-.64-2.59,5.276,5.276,0,0,0-1.85-2.02,4.988,4.988,0,0,0-2.78-.77,6.671,6.671,0,0,0-2.87.65,5.761,5.761,0,0,0-2.32,1.92,5.056,5.056,0,0,0-.91,3.03,5.546,5.546,0,0,0,.68,2.72A5.169,5.169,0,0,0,90.01-.47Zm6.19-.97A3.506,3.506,0,0,1,93.39-.2a3.814,3.814,0,0,1-2.35-.75,4.613,4.613,0,0,1-1.53-2,7.253,7.253,0,0,1-.53-2.81,5.167,5.167,0,0,1,.99-3.37,3.414,3.414,0,0,1,2.79-1.2,3.967,3.967,0,0,1,2.41.74,4.775,4.775,0,0,1,1.55,1.98,6.984,6.984,0,0,1,.52,2.75A5.138,5.138,0,0,1,96.2-1.44Zm12.88-3.62a4.563,4.563,0,0,0-2.49-.77,3.651,3.651,0,0,0,1.59-1,2.266,2.266,0,0,0,.59-1.54,1.859,1.859,0,0,0-.9-1.65,4.608,4.608,0,0,0-2.52-.58c-.21,0-.46.01-.73.02s-.5.03-.65.05q-.63.06-1.23.06c-.3,0-.74-.01-1.31-.04l-1.01-.02c-.03,0-.05.04-.05.13s.02.14.05.14a3.626,3.626,0,0,1,1.09.12.737.737,0,0,1,.47.44,2.7,2.7,0,0,1,.13.99v6.89a2.8,2.8,0,0,1-.13,1,.713.713,0,0,1-.47.44,4.141,4.141,0,0,1-1.11.11c-.03,0-.05.04-.05.13s.02.14.05.14c.43,0,.78-.01,1.03-.02l1.31-.03c.33,0,.63.01.92.03s.53.03.74.04c.53.05.99.07,1.38.07a4.733,4.733,0,0,0,3.01-.91,2.878,2.878,0,0,0,1.17-2.38A2.157,2.157,0,0,0,109.08-5.06Zm-5.13-5.13a2.09,2.09,0,0,1,.81-.12,2.88,2.88,0,0,1,1.94.57,2.366,2.366,0,0,1,.65,1.84,1.848,1.848,0,0,1-.66,1.68,4.313,4.313,0,0,1-2.15.41c-.47,0-.83-.01-1.08-.02V-8.67a3.447,3.447,0,0,1,.11-1.04A.728.728,0,0,1,103.95-10.19Zm4.53,7.51c0,1.61-1.04,2.41-3.11,2.41a2.394,2.394,0,0,1-1.52-.35,1.543,1.543,0,0,1-.39-1.2V-5.4a10.565,10.565,0,0,1,1.17-.05,4.636,4.636,0,0,1,2.9.75A2.431,2.431,0,0,1,108.48-2.68ZM124.1-.14c0-.09-.02-.13-.07-.13a4.073,4.073,0,0,1-1.09-.11.752.752,0,0,1-.48-.44,2.76,2.76,0,0,1-.14-1V-8.71a2.662,2.662,0,0,1,.14-.99.778.778,0,0,1,.48-.44,3.626,3.626,0,0,1,1.09-.12c.05,0,.07-.05.07-.14s-.02-.13-.07-.13l-1.01.02c-.57.03-1.02.04-1.35.04-.38,0-.84-.01-1.38-.04l-.99-.02c-.04,0-.06.04-.06.13s.02.14.06.14a3.176,3.176,0,0,1,1.07.13.782.782,0,0,1,.48.46,3.1,3.1,0,0,1,.12,1v3.15h-6.3V-8.67a3.1,3.1,0,0,1,.12-1,.758.758,0,0,1,.48-.46,3.391,3.391,0,0,1,1.09-.13c.03,0,.04-.05.04-.14s-.01-.13-.04-.13l-.97.02c-.57.03-1.05.04-1.42.04-.32,0-.76-.01-1.33-.04l-1.01-.02c-.03,0-.05.04-.05.13s.02.14.05.14a3.626,3.626,0,0,1,1.09.12.737.737,0,0,1,.47.44,2.7,2.7,0,0,1,.13.99v6.89a2.76,2.76,0,0,1-.14,1,.752.752,0,0,1-.48.44,4.126,4.126,0,0,1-1.09.11c-.03,0-.05.04-.05.13s.02.14.05.14c.43,0,.78-.01,1.03-.02l1.33-.03,1.39.03c.25.01.58.02,1,.02.03,0,.04-.05.04-.14s-.01-.13-.04-.13a4.141,4.141,0,0,1-1.11-.11.729.729,0,0,1-.46-.43,3.089,3.089,0,0,1-.12-1.01V-5.11h6.3v3.29a3.1,3.1,0,0,1-.12,1,.735.735,0,0,1-.47.44,3.887,3.887,0,0,1-1.08.11c-.04,0-.06.04-.06.13s.02.14.06.14c.42,0,.75-.01.99-.02l1.38-.03,1.35.03c.25.01.59.02,1.01.02C124.08,0,124.1-.05,124.1-.14Zm10.06-5.08a5.143,5.143,0,0,0-2.95-.7,15.327,15.327,0,0,0-2.54.25v-3a3.1,3.1,0,0,1,.12-1,.775.775,0,0,1,.49-.46,3.283,3.283,0,0,1,1.08-.13c.03,0,.04-.05.04-.14s-.01-.13-.04-.13l-.97.02c-.57.03-1.04.04-1.42.04-.31,0-.76-.01-1.33-.04l-1.01-.02c-.03,0-.05.04-.05.13s.02.14.05.14a3.626,3.626,0,0,1,1.09.12.737.737,0,0,1,.47.44,2.7,2.7,0,0,1,.13.99v6.89a2.8,2.8,0,0,1-.13,1,.713.713,0,0,1-.47.44,4.141,4.141,0,0,1-1.11.11c-.03,0-.05.04-.05.13s.02.14.05.14c.43,0,.78-.01,1.03-.02l1.31-.03c.33,0,.64.01.92.03s.53.03.74.04c.53.05.99.07,1.38.07A4.733,4.733,0,0,0,134-.82a2.878,2.878,0,0,0,1.17-2.38A2.284,2.284,0,0,0,134.16-5.22Zm7.02,5.08c0-.09-.01-.13-.04-.13a4,4,0,0,1-1.1-.11.746.746,0,0,1-.47-.43,3.089,3.089,0,0,1-.12-1.01V-8.67a3.1,3.1,0,0,1,.12-1,.8.8,0,0,1,.49-.46,3.283,3.283,0,0,1,1.08-.13c.03,0,.04-.05.04-.14s-.01-.13-.04-.13l-.97.02c-.57.03-1.05.04-1.44.04-.34,0-.79-.01-1.33-.04l-1.03-.02c-.03,0-.05.04-.05.13s.02.14.05.14a3.626,3.626,0,0,1,1.09.12.736.736,0,0,1,.47.44,2.94,2.94,0,0,1,.13.99v6.89a3.034,3.034,0,0,1-.13,1.01.706.706,0,0,1-.46.43,4.055,4.055,0,0,1-1.1.11c-.03,0-.05.04-.05.13s.02.14.05.14c.43,0,.78-.01,1.03-.02l1.33-.03,1.42.03c.24.01.57.02.99.02C141.17,0,141.18-.05,141.18-.14Zm-8.26-.77a3.615,3.615,0,0,1-2.36.64,2.36,2.36,0,0,1-1.51-.35,1.582,1.582,0,0,1-.38-1.2V-5.36a9.3,9.3,0,0,1,1.53-.13,4.083,4.083,0,0,1,2.58.71,2.437,2.437,0,0,1,.91,2.03A2.272,2.272,0,0,1,132.92-.91Zm20.06.77c0-.09-.02-.13-.05-.13a2.148,2.148,0,0,1-1.12-.37,3.866,3.866,0,0,1-1.17-1.23L148-5.76l2.05-2.84a4.286,4.286,0,0,1,1.29-1.27,2.552,2.552,0,0,1,1.28-.39c.03,0,.04-.05.04-.14s-.01-.13-.04-.13l-.74.02a8.1,8.1,0,0,1-.81.04c-.39,0-.84-.01-1.35-.04l-.9-.02c-.05,0-.07.04-.07.13s.02.14.07.14q1.23,0,1.23.54a2.48,2.48,0,0,1-.45.99l-1.8,2.65-2.2-3.28a1.386,1.386,0,0,1-.3-.63.222.222,0,0,1,.18-.22,2.535,2.535,0,0,1,.66-.05c.03,0,.04-.05.04-.14s-.01-.13-.04-.13l-.99.02c-.63.03-1.15.04-1.56.04-.13,0-.36-.01-.7-.04l-.69-.02c-.03,0-.05.04-.05.13s.02.14.05.14a2.148,2.148,0,0,1,1.12.37,3.719,3.719,0,0,1,1.17,1.22L146.95-5l-2.19,3.06a4.426,4.426,0,0,1-1.28,1.25,2.415,2.415,0,0,1-1.26.42c-.03,0-.05.04-.05.13s.02.14.05.14c.33,0,.57-.01.72-.02l.81-.03,1.37.03c.23.01.54.02.95.02.04,0,.07-.05.07-.14s-.03-.13-.07-.13c-.86,0-1.28-.19-1.28-.56a1.935,1.935,0,0,1,.45-.97l1.93-2.84,2.34,3.49a1.481,1.481,0,0,1,.32.63c0,.09-.07.16-.19.19a2.392,2.392,0,0,1-.64.06c-.05,0-.07.04-.07.13s.02.14.07.14c.36,0,.64-.01.85-.02l1.42-.03q.51,0,.81.03l.85.02C152.96,0,152.98-.05,152.98-.14Zm17.63,0c0-.09-.02-.13-.05-.13a2.579,2.579,0,0,1-1.16-.29,3.711,3.711,0,0,1-1-.91,19.979,19.979,0,0,1-1.33-1.95,15.1,15.1,0,0,0-1.23-1.76,1.782,1.782,0,0,0-1-.58l1.6-2.1a7.66,7.66,0,0,1,1.78-1.84,3.237,3.237,0,0,1,1.89-.56c.04,0,.07-.05.07-.14s-.03-.13-.07-.13l-.7.02c-.45.03-.86.04-1.24.04-.49,0-1.01-.01-1.55-.04l-.85-.02c-.05,0-.07.04-.07.13s.02.14.07.14a1.945,1.945,0,0,1,.79.12.417.417,0,0,1,.26.42,4.427,4.427,0,0,1-.9,1.82l-1.48,2.09c-.36-.01-1.07.02-2.12.09V-8.67a2.8,2.8,0,0,1,.13-1,.758.758,0,0,1,.48-.46,3.283,3.283,0,0,1,1.08-.13c.03,0,.04-.05.04-.14s-.01-.13-.04-.13l-.97.02c-.57.03-1.04.04-1.42.04-.31,0-.75-.01-1.32-.04l-1.02-.02c-.03,0-.04.04-.04.13s.01.14.04.14a3.581,3.581,0,0,1,1.09.12.753.753,0,0,1,.48.44,2.992,2.992,0,0,1,.12.99v6.89a2.8,2.8,0,0,1-.13,1,.768.768,0,0,1-.49.44,4.022,4.022,0,0,1-1.09.11c-.03,0-.05.04-.05.13s.02.14.05.14c.44,0,.78-.01,1.04-.02l1.32-.03,1.4.03c.24.01.57.02.99.02.03,0,.04-.05.04-.14s-.01-.13-.04-.13a4,4,0,0,1-1.1-.11.706.706,0,0,1-.46-.43,2.79,2.79,0,0,1-.13-1.01V-5.31a5.172,5.172,0,0,1,.61-.02,2.7,2.7,0,0,1,1.14.19,1.883,1.883,0,0,1,.69.58,18.7,18.7,0,0,1,1.03,1.57c.21.33.57.93,1.08,1.82.19.33.35.59.47.78a1,1,0,0,0,.28.33.629.629,0,0,0,.31.06h2.63C170.59,0,170.61-.05,170.61-.14Zm2.96-.33a5.322,5.322,0,0,0,2.8.74,5.931,5.931,0,0,0,2.99-.78,5.938,5.938,0,0,0,2.19-2.09,5.3,5.3,0,0,0,.81-2.82,5.5,5.5,0,0,0-.65-2.59,5.174,5.174,0,0,0-1.84-2.02,4.988,4.988,0,0,0-2.78-.77,6.671,6.671,0,0,0-2.87.65,5.761,5.761,0,0,0-2.32,1.92,5.056,5.056,0,0,0-.91,3.03,5.648,5.648,0,0,0,.67,2.72A5.2,5.2,0,0,0,173.57-.47Zm6.19-.97A3.52,3.52,0,0,1,176.95-.2a3.814,3.814,0,0,1-2.35-.75,4.612,4.612,0,0,1-1.53-2,7.253,7.253,0,0,1-.53-2.81,5.167,5.167,0,0,1,.99-3.37,3.415,3.415,0,0,1,2.79-1.2,3.988,3.988,0,0,1,2.41.74,4.675,4.675,0,0,1,1.54,1.98,6.813,6.813,0,0,1,.53,2.75A5.193,5.193,0,0,1,179.76-1.44Zm9.12-8.67h.59a2.652,2.652,0,0,1,.97.13.683.683,0,0,1,.42.41,2.557,2.557,0,0,1,.12.9v6.85a2.8,2.8,0,0,1-.13,1,.7.7,0,0,1-.46.44,3.887,3.887,0,0,1-1.08.11c-.04,0-.07.04-.07.13s.03.14.07.14c.42,0,.75-.01.99-.02l1.37-.03,1.36.03c.25.01.6.02,1.03.02.03,0,.05-.05.05-.14s-.02-.13-.05-.13a4.141,4.141,0,0,1-1.11-.11.729.729,0,0,1-.48-.44,3.1,3.1,0,0,1-.12-1V-8.71a2.992,2.992,0,0,1,.12-.99.77.77,0,0,1,.49-.44,3.747,3.747,0,0,1,1.1-.12c.03,0,.05-.05.05-.14s-.02-.13-.05-.13h-8.82c-.03,0-.05.04-.05.13s.02.14.05.14a2.318,2.318,0,0,1,1.29.25,1.249,1.249,0,0,1,.35,1.03c0,.1-.02.32-.05.65a22.246,22.246,0,0,1-1.01,5.21c-.45,1.24-1.12,1.86-2.02,1.86-.66,0-.99.25-.99.74s.3.72.9.72a2.245,2.245,0,0,0,2.02-1.38,10.409,10.409,0,0,0,1.06-3.16c.21-1.19.41-2.66.61-4.42a3.159,3.159,0,0,1,.18-.9.592.592,0,0,1,.38-.36A3.274,3.274,0,0,1,188.88-10.11Zm15.28,7.05c-.09,0-.13.02-.13.07a3.638,3.638,0,0,1-.97,1.9,2.212,2.212,0,0,1-1.62.73h-1.08a3.887,3.887,0,0,1-1.13-.12.823.823,0,0,1-.51-.45,2.749,2.749,0,0,1-.13-.98V-5.13a25.446,25.446,0,0,1,2.99.17q.81.12.9.12c.07,0,.11-.17.11-.52,0-.31-.04-.47-.11-.47s-.38.03-.91.1a28.972,28.972,0,0,1-2.98.12V-8.69a2.7,2.7,0,0,1,.13-.99.788.788,0,0,1,.5-.44,3.919,3.919,0,0,1,1.14-.12h.63a2.248,2.248,0,0,1,1.64.66,2.647,2.647,0,0,1,.75,1.7c0,.05.04.07.14.07s.13-.02.13-.07c0-.43-.01-.79-.02-1.08l-.02-1.39c0-.12-.08-.18-.23-.18h-7.83c-.03,0-.05.04-.05.13s.02.14.05.14a3.551,3.551,0,0,1,1.08.12.744.744,0,0,1,.46.44,2.992,2.992,0,0,1,.12.99v6.89a3.1,3.1,0,0,1-.12,1,.719.719,0,0,1-.46.44,3.988,3.988,0,0,1-1.08.11c-.03,0-.05.04-.05.13s.02.14.05.14h8.24a.378.378,0,0,0,.27-.08.433.433,0,0,0,.06-.26c0-.69.06-1.57.16-2.65C204.28-3.04,204.24-3.06,204.16-3.06Zm9.88-7.56a10.212,10.212,0,0,0-1.84-.18,6.884,6.884,0,0,0-3.15.72,5.642,5.642,0,0,0-2.23,1.98,5.053,5.053,0,0,0-.81,2.79,6.1,6.1,0,0,0,.61,2.59A5.161,5.161,0,0,0,208.6-.59a6.565,6.565,0,0,0,3.51.86,10.735,10.735,0,0,0,3.61-.61.567.567,0,0,0,.24-.16.486.486,0,0,0,.07-.24l.29-2.39c0-.01-.02-.03-.05-.06a.224.224,0,0,0-.1-.03c-.08,0-.12.02-.12.07q-.87,3.105-3.71,3.1a4.137,4.137,0,0,1-2.58-.81,5.007,5.007,0,0,1-1.6-2.1,7.087,7.087,0,0,1-.53-2.69,5.558,5.558,0,0,1,.53-2.46,4.3,4.3,0,0,1,1.47-1.73,3.658,3.658,0,0,1,2.1-.63,4.525,4.525,0,0,1,2.65.75,3.84,3.84,0,0,1,1.47,2.29c.02.06.06.08.15.07s.12-.05.12-.09l-.22-2.32a.766.766,0,0,0-.07-.25.488.488,0,0,0-.2-.13A6.3,6.3,0,0,0,214.04-10.62ZM229.92-.14c0-.09-.03-.13-.09-.13a1.98,1.98,0,0,1-.98-.21,2.3,2.3,0,0,1-.72-.78,20.191,20.191,0,0,1-.93-1.82l-3.63-7.79a.1.1,0,0,0-.11-.09.151.151,0,0,0-.14.09l-3.24,7.9a13.368,13.368,0,0,1-.84,1.75,1.9,1.9,0,0,1-.76.76,2.557,2.557,0,0,1-1.1.19c-.07,0-.11.04-.11.13s.04.14.11.14c.27,0,.63-.02,1.08-.05.51-.03.95-.04,1.33-.04.36,0,.75.01,1.17.04.39.03.7.05.92.05.08,0,.12-.05.12-.14s-.04-.13-.12-.13a2.356,2.356,0,0,1-1.23-.25.892.892,0,0,1-.41-.83,3.823,3.823,0,0,1,.36-1.42l.97-2.41h3.15l1.53,3.29a2.535,2.535,0,0,1,.27.94.528.528,0,0,1-.28.53,1.941,1.941,0,0,1-.87.15c-.06,0-.09.04-.09.13s.03.14.09.14c.21,0,.51-.02.9-.05s.71-.04.95-.04c.27,0,.7.01,1.3.04s1.04.05,1.31.05C229.89,0,229.92-.05,229.92-.14Zm-8.19-5.44,1.3-3.24,1.51,3.24Z"/>
    </g>
  </g>
</svg>
