<svg xmlns="http://www.w3.org/2000/svg" viewBox="0 0 90 90" fill="currentColor"><path fill-rule="evenodd" clip-rule="evenodd" d="M45 3.08563C21.8513 3.08563 3.08563 21.8513 3.08563 45C3.08563 68.1486 21.8513 86.9143 45 86.9143C68.1486 86.9143 86.9143 68.1486 86.9143 45C86.9143 44.1716 87.5859 43.5 88.4143 43.5C89.2428 43.5 89.9143 44.1716 89.9143 45C89.9143 69.8055 69.8055 89.9143 45 89.9143C20.1945 89.9143 0.0856323 69.8055 0.0856323 45C0.0856323 20.1945 20.1945 0.0856323 45 0.0856323C45.8284 0.0856323 46.5 0.757205 46.5 1.58563C46.5 2.41406 45.8284 3.08563 45 3.08563Z" fill="currentColor"/><path fill-rule="evenodd" clip-rule="evenodd" d="M87.7845 14.1537C88.3671 13.5646 88.3618 12.6149 87.7728 12.0324C87.1838 11.4498 86.2341 11.4551 85.6515 12.0441L41.7748 56.4083L32.0762 45.5273C32.047 45.487 32.0154 45.4478 31.9816 45.4099L24.1104 36.5802C23.5591 35.9618 22.6109 35.9074 21.9925 36.4587C21.3741 37.0099 21.3197 37.9581 21.871 38.5765L21.8853 38.5925L21.8803 38.597L40.3857 59.3584C41.0768 60.1338 42.2788 60.165 43.0092 59.4265L87.7845 14.1537Z" fill="currentColor"/></svg>